<?xml version="1.0" encoding="utf-8"?>
<!-- Generator: Adobe Illustrator 24.0.2, SVG Export Plug-In . SVG Version: 6.00 Build 0)  -->
<svg version="1.1" id="Capa_1" xmlns="http://www.w3.org/2000/svg" xmlns:xlink="http://www.w3.org/1999/xlink" x="0px" y="0px"
	 viewBox="0 0 512 512" style="enable-background:new 0 0 512 512;" xml:space="preserve">
<style type="text/css">
	.st0{fill:#F7F7F6;}
	.st1{fill:#FFFFFF;}
</style>
<g>
	<g>
		<path class="st0" d="M1146,695c23.2,0,46.3,0,69.5,0c44.7,0,80.4,29.2,88.9,73c1,5.4,1.3,10.9,1.3,16.4c0.1,47,0.1,94,0,141
			c-0.1,44.2-29.7,80.1-73.1,88.4c-5.4,1-10.9,1.2-16.4,1.2c-47,0.1-94,0.1-141,0c-44.1-0.1-80.2-30-88.2-73.3
			c-1-5.5-1.2-11.3-1.2-16.9c-0.1-46.5-0.1-93,0-139.5c0-44.8,28.9-80.2,72.9-89c5.5-1.1,11.3-1.3,16.9-1.3
			C1099,694.9,1122.5,695,1146,695z M1277.4,855.1c0-22.7,0.3-45.3-0.2-68c-0.1-7.7-1-15.8-3.4-23c-8.6-25.6-30.5-40.6-58.9-40.7
			c-46.2-0.2-92.3-0.2-138.5,0.1c-7.2,0-14.7,1.1-21.5,3.3c-25.9,8.7-40.8,30.8-40.8,59.9c-0.1,45.5-0.1,91,0,136.5
			c0,5.3,0.3,10.7,1.5,15.9c6.7,29.4,29.9,47.5,61.2,47.6c46,0.1,92,0.1,138,0c11.7,0,22.8-2.1,32.9-8.4
			c20.3-12.6,29.7-31.1,29.7-54.8C1277.4,900.8,1277.4,877.9,1277.4,855.1z"/>
		<path class="st0" d="M1145.5,772.6c45.3-0.3,82.5,36.8,82.7,82.4c0.2,45.4-37,82.6-82.5,82.6c-45.3,0-82-36.5-82.5-82.1
			C1062.8,810.2,1099.8,772.9,1145.5,772.6z M1146.2,801c-29.9-0.1-54.4,24-54.5,53.6c-0.1,29.9,24,54.4,53.6,54.5
			c29.9,0.1,54.4-24,54.5-53.6C1199.8,825.6,1175.7,801.1,1146.2,801z"/>
		<path class="st0" d="M1231.4,790.1c-11.3-0.1-20.6-9.5-20.6-20.7c0-11.5,9.4-20.8,21.1-20.7c11.4,0.1,20.7,9.4,20.7,20.6
			C1252.6,780.7,1243,790.2,1231.4,790.1z"/>
	</g>
</g>
<g>
	<path class="st0" d="M1434.9,903.9c-16.8,0-32.6,0-48.7,0c0-19,0-37.7,0-56.9c16.1,0,32,0,48.6,0c0-2.2,0-4,0-5.7
		c0-13.7-0.4-27.3,0.2-41c0.8-18.4,5.6-35.5,18.5-49.3c11.1-12,25.2-19,41.3-20c18.7-1.1,37.5-0.3,56.7-0.3c0,18.1,0,34.8,0,52.1
		c-5.9,0-11.8-0.1-17.8,0c-6.3,0.1-12.7,0.2-18.9,0.8c-13.5,1.4-20.1,7.6-20.7,21c-0.6,13.8-0.1,27.6-0.1,42c18.5,0,36.9,0,56.1,0
		c-2.5,19.3-4.9,38-7.4,57c-16.2,0-32.1,0-48.7,0c0,48.7,0,97.1,0,145.8c-19.9,0-39.1,0-59,0
		C1434.9,1001.2,1434.9,952.9,1434.9,903.9z"/>
</g>
<g>
	<path class="st1" d="M291.8,441.2c0-44.7,0-88.5,0-133c12,0,23.9,0,36.3,0c2.7-17.5,5.4-34.5,8.1-52.2c-18.5,0-36.1,0-54.7,0
		c0-10.7-0.1-20.8,0-30.9c0-4.2-0.2-8.5,0.8-12.5c3.3-12.7,12.1-19,26.6-19.5c5.8-0.2,11.6-0.1,17.3-0.1c5.6,0,11.1,0,17.2,0
		c0-15.2,0-30.2,0-45.9c-7-0.9-14-2.1-21.1-2.5c-15.9-1-31.8-2.1-47.4,2.8c-26.4,8.3-41.2,26.6-44.4,53.5c-1.9,15.5-1,31.4-1.4,47.1
		c-0.1,2.3,0,4.7,0,7.8c-14.2,0-27.8,0-41.6,0c0,17.6,0,34.5,0,51.9c13.7,0,27.2,0,41.1,0c0,44.6,0,88.7,0,132.8
		C152.2,431.9,71.2,363,70.9,256.6C70.6,151.9,157.6,65.9,265.4,71.1c99.9,4.8,183.1,91.1,175.1,200.2c-3.8,52.1-26.3,95.4-66,129.3
		C350.6,421,323.3,434.8,291.8,441.2z"/>
</g>
<g>
	<path class="st1" d="M1409.8-49.7c-60.5-49.7-56.6-131.4-10.6-176.4c46.3-45.3,121.4-44.5,166.4,2.2c44.7,46.5,45.7,126.4-12,173.4
		c11.9,7.7,24.6,14.4,35.7,23.3c44.1,35.5,67.1,81.7,67,138.6c0,32.6-25.4,57.6-58.9,57.8c-77.4,0.4-154.8,0.4-232.2,0
		c-37.2-0.2-62.2-30.8-59.1-68c3.2-38.6,16-72.8,40.5-102.6c15.5-18.8,34.4-33.6,56.2-44.6C1404.8-47.1,1406.9-48.2,1409.8-49.7z
		 M1481.2,130.1c38.2,0,76.4,0,114.7,0c13.4,0,21.9-8.2,21.7-21.1c-0.1-6.3-0.5-12.7-1.5-18.9c-12.5-74.7-79.2-124.2-154.1-114.5
		c-64.4,8.4-115.9,66.1-117,131.2c-0.3,15.5,7.4,23.2,23.1,23.3C1405.8,130.1,1443.5,130.1,1481.2,130.1z M1403.4-142.9
		c-0.2,42.8,35.1,78.5,77.7,78.3c42.9-0.1,78.2-35.3,78.2-78c-0.1-42.5-35-77.6-77.4-77.8C1438.8-220.6,1403.6-185.8,1403.4-142.9z"
		/>
</g>
<g>
	<g>
		<path class="st1" d="M597.2-419.7c103.3,0,206.2,0,309.5,0c0.1,1.8,0.3,3.4,0.3,5c0,35,0.1,70,0,105
			c-0.1,23.1-14.8,42.1-37.2,47.8c-4.6,1.2-9.5,1.7-14.3,1.7c-69,0.1-138,0.1-206.9,0.1c-24.6,0-43-13.5-49.7-36.2
			c-1.1-3.6-1.7-7.5-1.7-11.3c-0.1-36.3-0.1-72.6-0.1-109C597-417.5,597.1-418.3,597.2-419.7z M805.4-353.3
			c-16.8-0.1-30.4,13.2-30.5,29.8c-0.1,16.6,13.4,30.5,29.9,30.6c16.9,0.2,30.7-13.3,30.7-30.2C835.6-339.9,822.3-353.2,805.4-353.3
			z M826.9-351.6c8.8,7.4,13.9,16.6,14,28.1c0.1,11.7-5.1,21-13.9,28.7c11.8,4.5,25.1-0.1,33-10.8c8-10.8,7.6-25.9-0.9-36.6
			C851.5-351.8,837.4-356.1,826.9-351.6z"/>
		<path class="st1" d="M597.7-451.3c2-14.1,8.8-24.9,19.8-33.1c8.7-6.5,18.7-9.3,29.5-9.3c70-0.1,140-0.1,209.9,0
			c23.7,0,42,14.4,48.3,37.3c0.4,1.6,0.6,3.2,0.9,5.2C803.4-451.3,701-451.3,597.7-451.3z"/>
	</g>
</g>
<g>
	<path class="st1" d="M-519.9-604c20.9,0.4,40.8,4.5,59,15.4c9.7,5.8,17.9,13.1,23.2,23.3c8.9,17.2,5,40.4-8.9,55.1
		c-12.1,12.8-27.4,19.8-44.3,23.2c-23.6,4.8-47.2,4.2-70.2-3.7c-15-5.2-28-13.3-36.9-26.9c-12.2-18.7-12.3-46.2,10.3-64.3
		c14.1-11.3,30.3-17.4,47.9-20.1C-533.2-603.1-526.5-603.4-519.9-604z M-436.5-549.3c-0.5-0.2-0.7-0.3-0.9-0.3
		c-10.6,3.2-21.2,6.5-31.7,9.8c-0.5,0.2-1.2,1.4-1.1,2.1c0.7,7.2-1.2,9.6-8.7,10.9c-0.7,0.1-1.6,0.9-1.8,1.6c-1.3,4.6-4.6,6.5-9,7.1
		c-1,0.1-2.2,0.9-2.8,1.8c-2.3,3.2-5.1,4.9-9.1,4.7c-0.7,0-1.7,0.1-2.2,0.6c-3.9,3.4-8.2,2.8-12.5,1.1c-1.7-0.6-2.9-0.7-4.5,0.3
		c-4.7,2.9-9.7,1.7-13.2-2.5c-0.7-0.9-2.1-1.6-3.2-1.7c-3.2-0.1-5.7-1.3-7.9-3.6c-0.8-0.8-2.1-1.5-3.3-1.6c-3.9-0.5-6.6-2.5-8.5-5.9
		c-0.5-0.9-1.6-1.7-2.6-1.9c-5.2-0.8-8.4-4.5-7.7-9.6c0.3-2-0.3-3-1.9-3.6c-6.5-2.5-13-5.1-19.6-7.3c-4.4-1.5-9-2.3-13.7-3.4
		c-0.9,8.9,1.3,16.5,5.7,23.4c5.4,8.4,12.7,14.9,21.4,19.5c33.6,17.6,68.1,18.3,103,4.2c13.7-5.5,25.3-14.2,32.2-27.8
		C-437.3-537.1-436-543-436.5-549.3z M-513.5-522.6c0.3-0.3,0.6-0.6,0.9-0.8c0.7,0.4,1.4,0.7,2,1.2c2.2,2,4.4,4.1,6.5,6.1
		c2.3,2.2,5.5,2.1,7.7-0.2c2.3-2.3,0.8-4.1-0.8-5.8c-2-2.2-4-4.4-6-6.7c-0.6-0.7-1-1.7-1.5-2.6c0.2-0.2,0.5-0.4,0.7-0.6
		c0.9,0.6,1.8,1.1,2.6,1.8c2.5,2.3,4.9,4.7,7.3,7.1c2.6,2.5,6.5,2.4,9.1-0.2c2.2-2.2,2-4.5-0.9-7.5c-3-3.1-6.1-6.1-9.1-9.2
		c-0.7-0.7-1.1-1.6-1.6-2.5c0.2-0.2,0.5-0.4,0.7-0.7c0.9,0.6,1.8,1.1,2.6,1.8c3.7,3.3,7.3,6.6,11,9.8c2.5,2.2,6.1,1.9,8.3-0.5
		c1.8-2,1.5-4.9-1-7.1c-11.1-9.5-22.1-19-33.3-28.3c-3.9-3.2-8.3-4-12.8-1.1c-4.1,2.7-8.1,5.6-12.1,8.4c-4.4,3-9.1,2.9-13.8,0.7
		c-3.7-1.7-4.1-4.2-1.4-7.2c2.5-2.7,4.9-5.4,7.4-8.1c-1.7-0.1-3,0.1-4.2,0.6c-5.3,1.8-10.7,2-16.1,0.5c-6.8-1.9-13.6-3.8-20.3-6.2
		c-2.2-0.8-3.7-0.5-5.1,1.1c-3.7,4.4-7.7,8.6-10.9,13.3c-2.2,3.2-3.2,7.1-4.8,10.9c2.2,0.7,3.7,1.2,5.2,1.6
		c10.8,2.5,21.5,5.3,31.2,10.9c0.6,0.3,1.6,0.4,2.2,0c4.2-2.7,8-1.9,11.5,1.4c5-2.5,9.5-2.3,13.3,2.2c0.3,0.4,1,0.6,1.6,0.6
		c8.1,0.1,10.3,1.9,11.6,9.8c8.3,2,10.7,5.7,9.2,14.2c4.2,2.6,7.9,2.6,10.8,0C-508.5-516.7-511-519.6-513.5-522.6z M-547.3-563.2
		c3.1,3,7.7,3.5,11.7,0.9c3.4-2.1,6.4-4.8,9.6-7.1c8.1-5.6,13-5.6,20.5,0.6c10.3,8.5,20.4,17.2,30.5,25.9c1.3,1.2,2.3,1.1,3.8,0.6
		c8.1-2.9,16.2-5.8,24.3-8.5c3.2-1.1,6.5-1.8,9.9-2.7c-2-10-7.3-17.7-14.5-24.3c-1.5-1.3-2.5-1.5-4.3-0.7c-6.4,3-13.2,4.4-20.2,4.7
		c-8,0.3-15.6-1.6-22.9-4.9c-10-4.5-20.3-6.2-30.5-1.1C-536.8-576-541.6-569.1-547.3-563.2z M-581.4-582.3c7.3,2,14,3.7,20.6,5.6
		c5.3,1.5,10.5,0.8,15.8-0.6c5.3-1.4,10.4-3.1,15.4-5.6c10.7-5.4,21.6-3.5,32.1,1.3c9.8,4.4,19.8,6,30.3,3.6c3.6-0.8,7-2.1,11.1-3.3
		C-488.4-606.5-549.9-606.3-581.4-582.3z M-543.9-523.5c0.2,5.8,5.5,8.7,10.5,4.9c2.4,6.3,4.6,8.2,8.7,7.3c3.4-0.7,6-3.8,5.5-7.1
		c-0.3-1.6-1-3.9-2.2-4.5c-2.5-1.3-5.5-1.6-8.5-2.4c0.7-2.6,1.7-6.2-1.7-8.6c-2.8-2-5.8-1.5-8.7,0.9c-0.4-3.5-2.1-6.1-5.3-6
		c-2.7,0.1-5.3,1.6-8.1,2.5c-1.6-3.6-4.3-5.1-7.5-3.7c-2.6,1.2-4,4.4-2.8,7c1.5,3.4,4.3,4,9.1,2
		C-554.7-522.7-549.1-520.6-543.9-523.5z"/>
	<path class="st1" d="M-329.7-496.1c3.2,0,6.1,0,9.1,0c0.4,0,1,0.3,1.3,0.6c2.6,2.7,5.6,4.1,9.1,2.3c3.8-1.9,5.1-5.4,5-9.5
		c0-0.3-0.1-0.6-0.3-1.4c-3,3.5-6.7,5-11,4.5c-7-0.7-12.5-6-13.9-14c-1-5.9-0.9-12,2.3-17.3c1.3-2.1,3.1-4.3,5.2-5.4
		c8.2-4.4,21.6-2.8,25.6,6.8c1,2.5,1.6,5.3,1.7,8c0.2,6.6,0.2,13.1,0,19.7c-0.2,6.6-2.4,12.4-8.6,15.6c-6.4,3.3-12.9,2.6-19.1-0.9
		C-326.7-488.9-328.6-492-329.7-496.1z M-304.7-519c-0.7-2.5-1.3-5.2-2.3-7.6c-1.2-2.8-3.8-4-6.8-3.8c-2.9,0.2-5,1.6-6.1,4.4
		c-1.7,4.1-1.9,8.3-0.9,12.6c0.9,3.9,2.6,5.5,6.4,5.9c3.8,0.4,6.5-0.8,7.9-4.3C-305.6-514-305.4-516.3-304.7-519z"/>
	<path class="st1" d="M-379.4-587.1c3.7-3.5,7.8-5.5,12.7-4.8c8.9,1.2,13.6,6.6,13.8,15.5c0.1,7.2,0,14.4,0,21.6
		c0,0.3-0.1,0.6-0.2,1.1c-2.7,0-5.4,0-8.5,0c0-7.4,0-14.8,0-22.1c0-4.2-2.3-6.9-6-7.2c-4.2-0.4-7.5,2.6-7.6,7
		c-0.1,6.3,0,12.5,0,18.8c0,1.1,0,2.2,0,3.5c-2.9,0-5.6,0-8.7,0c0-3.9,0-7.8,0-11.7c0-3.7,0.1-7.4,0-11.1c-0.1-4-2.9-6.6-6.6-6.6
		c-3.9,0-6.8,2.8-6.8,6.8c-0.1,6.4,0,12.7,0,19.1c0,1.1,0,2.2,0,3.5c-3,0-5.7,0-8.4,0c0-8.9-0.9-17.8,0.2-26.4
		c1.5-11,15.2-15.6,24.1-8.8C-380.8-588.4-380.2-587.8-379.4-587.1z"/>
	<path class="st1" d="M-182.6-586.7c0-3.3,0-5.9,0-8.6c0-6.3,3-8.9,9.7-8c0,1.6,0,3.2,0,4.8c0,9.8,0,19.7,0,29.5
		c0,9.3-6.1,15.7-15.4,16.1c-2.3,0.1-4.7-0.1-7-0.4c-7.1-0.9-11.2-5.2-12.8-11.9c-1.6-6.8-1.1-13.5,2.5-19.6
		C-200.6-593.1-189.9-594.3-182.6-586.7z M-199.4-572c0.7,2.5,1.1,4.8,1.9,7c1.1,2.9,3.3,4.3,6.4,4.4c3.2,0.2,5.7-1,7.2-3.8
		c2.7-5.1,2.5-10.3-0.1-15.3c-1.5-2.8-4.1-4-7.2-3.9c-2.9,0.1-5.2,1.5-6.2,4.3C-198.3-576.9-198.8-574.4-199.4-572z"/>
	<path class="st1" d="M-396.6-504.6c0,4,0,7.3,0,10.5c0,5.4-1.3,6.7-6.7,6.7c-0.8,0-1.6,0-2.3,0c-0.2-0.3-0.5-0.5-0.5-0.7
		c0-12.1-0.1-24.2,0.2-36.3c0.1-6.2,4.5-11.6,10.6-12.8c4-0.8,8.4-1.2,12.5-0.6c6.6,1,10.1,5.9,11.8,12c1.7,6.2,1.1,12.3-1.6,18.3
		C-377-498-390-496.4-396.6-504.6z M-379.3-518.8c-0.9-2.8-1.5-5.7-2.9-8.2c-2.5-4.3-9.5-4.3-12.3-0.2c-2.9,4.2-2.9,12.2-0.1,16.4
		c3.1,4.6,10.2,4.5,12.8-0.5C-380.7-513.4-380.2-516-379.3-518.8z"/>
	<path class="st1" d="M-312.2-569.6c-9.2,0-18,0-26.7,0c0.2,7.3,7.1,11.7,13.3,8.1c3.3-2,6.5-1.8,9.9-1.9c0.8,0,1.6,0,2.5,0
		c-0.8,4.8-5.9,9.6-12,10.4c-3.7,0.5-7.7,0.3-11.3-0.6c-7.4-1.8-11.7-7.7-12.1-15.3c-0.1-2.4-0.2-4.8,0.1-7.1
		c0.9-6.9,4.2-12.3,11-14.6c6.9-2.3,13.9-2,19.7,3.1C-312.5-582.9-311.7-576.6-312.2-569.6z M-322.1-576.2c-0.4-5-3.5-7.9-8.3-7.9
		c-4.6,0-7.8,3.1-8.1,7.9C-333.1-576.2-327.7-576.2-322.1-576.2z"/>
	<path class="st1" d="M-272.7-538.6c11.4,0,18.9,7.9,18.8,19.8c-0.1,12.2-7.4,19.7-19.2,19.7c-11.5,0-18.8-7.7-18.8-19.7
		C-291.8-531-284.3-538.6-272.7-538.6z M-263.6-518.5c-0.1,0-0.3-0.1-0.4-0.1c0-0.9,0.1-1.9,0-2.8c-0.4-5.2-3.7-8.9-8.2-9.2
		c-4.6-0.4-8,2.6-9.3,8c-0.8,3.7-0.5,7.3,1.1,10.8c1.5,3.2,4.2,4.7,7.7,4.7c3.5,0,6.2-1.6,7.5-4.9
		C-264.5-514.1-264.1-516.4-263.6-518.5z"/>
	<path class="st1" d="M-150.9-552.7c-11.7-0.1-18.8-7.6-18.7-20c0.1-11.9,7.8-19.6,19.5-19.5c11.2,0.1,18.6,8.3,18.4,20.2
		C-132-560-139.3-552.6-150.9-552.7z M-141.5-572.1c-0.4-2.2-0.5-4.2-1.1-6c-1.3-4-4.5-6.2-8.3-6.1c-3.9,0.1-7,2.7-8.2,6.7
		c-1.1,4-1,7.9,0.6,11.7c1.5,3.3,4.1,5,7.8,5c3.6,0,6.4-1.7,7.7-5.1C-142.3-567.9-142-570.1-141.5-572.1z"/>
	<path class="st1" d="M-366.2-525.5c0.8-7.7,5-12.2,12.2-12.4c4.3-0.1,8.8,0.5,13,1.5c3.7,0.8,6,3.6,6.1,7.6
		c0.1,5.8,0.2,11.7,0,17.5c-0.2,5.6-3.5,9.5-8.6,10.7c-4.9,1.2-10.1,1.5-15.2,1.2c-5-0.3-8.3-4.5-8.9-9.6c-0.5-5.1,1.9-9.7,6.5-11.4
		c2.9-1.1,6.1-1.5,9.2-2.1c1.9-0.4,3.9-0.6,5.6-1.3c0.9-0.4,1.9-1.9,1.8-2.8c-0.1-1.1-0.9-2.6-1.9-3.1c-3.8-2.2-8.2-0.8-10.5,3
		c-0.4,0.6-1.2,1.2-1.8,1.3C-361-525.4-363.6-525.5-366.2-525.5z M-344.5-517.8c-3.2,0.7-6.4,1.2-9.5,2.1c-3,0.8-4.4,3.3-3.8,6.2
		c0.5,2.4,3,3.9,6,3.5C-345.9-506.7-343.4-510.8-344.5-517.8z"/>
	<path class="st1" d="M-243.6-579.3c0.7-7.1,3.7-10.7,9.9-12.1c5.1-1.2,10.2-0.9,15.1,1c4.1,1.5,6.3,4.4,6.3,8.8c0,5.3,0,10.7,0,16
		c-0.1,4.9-2.5,8.5-6.8,10.5c-5.8,2.7-11.9,3-18.1,1.6c-4.7-1-7.5-4.7-7.8-9.1c-0.4-5.4,1.8-9.7,6.3-11.5c2.8-1.1,5.9-1.5,8.9-2.1
		c2-0.4,4.1-0.5,6-1.3c1-0.4,2-2,2-3c0-1-1-2.5-2-3c-3.9-2.1-8.1-0.7-10.5,3.1c-0.4,0.6-1.2,1.1-1.8,1.1
		C-238.5-579.2-240.9-579.3-243.6-579.3z M-221.8-571.6c-3.3,0.7-6.4,1.3-9.4,2.2c-3.3,0.9-4.8,3.5-3.9,6.5c0.7,2.5,3.3,3.7,6.5,3
		C-223-561-221-564.4-221.8-571.6z"/>
	<path class="st1" d="M-248.1-577.9c-3.5,0-6.7,0-10.1,0c-1.1-3.8-3.3-6.3-7.9-5.9c-3,0.3-5.1,1.6-6.2,4.4
		c-1.9,4.7-1.8,9.5-0.2,14.2c1,3,3.5,4.5,6.9,4.6c3.3,0.1,5.6-1.2,6.5-4.4c0.5-1.7,1.4-2.2,3.1-2.1c2.4,0.1,4.9,0,7.3,0
		c0.8,5.4-5.4,13.3-13.3,14.3c-2.7,0.4-5.6,0.3-8.3-0.1c-5.7-0.8-9.7-4.1-12.1-9.4c-4-9-1.6-20.9,5.4-26.2
		c5.9-4.4,17.6-4.5,23.6-0.1C-249.9-586-248.6-582.3-248.1-577.9z"/>
	<path class="st1" d="M-285.9-591.5c0,3.1,0,6.1,0,9c-11.8,0.4-11.7,4.9-11.7,13.1c0,5.1,0,10.2,0,15.6c-3.2,0-6.2,0-9.9,0
		c0.3-8.4-0.1-17,1.3-25.3C-304.8-587.8-295.8-592.8-285.9-591.5z"/>
</g>
<g>
	<path class="st1" d="M138.6-182.4c-11,0-21.2,0-31.9,0c-1.5-6.4-2.9-12.9-4.5-20c-14.3,0-28.5-0.1-42.7,0.1c-1.2,0-2.4,1.5-3.4,2.5
		c-0.5,0.5-0.6,1.4-0.9,2.2c-2.1,5.1-2.8,12.1-6.5,14.7c-3.8,2.6-10.7,0.8-16.2,0.9c-6.1,0.1-12.2,0-19.3,0
		c4.6-11.1,9-21.4,13.3-31.7c12.7-30.4,25.6-60.8,38.1-91.3c3.6-8.9,9.5-13,19.1-12.7c8.9,0.3,17.7,0.1,26.9,0.1
		C119.8-272.5,129.1-227.7,138.6-182.4z M67-230.3c10.4,0,19.7,0,29.5,0c-3.5-16.9-6.9-33.2-10.4-49.5c-0.4,0-0.8,0-1.2,0
		C79-263.4,73.1-247.1,67-230.3z"/>
	<path class="st1" d="M-296.5-316.5c1.8-0.4,3.7-1.2,5.5-1.2c17.8-0.1,35.6-0.1,53.4,0c10.3,0,15.9,4.8,17.9,15.3
		c4.1,21.5,8,43.1,12.1,64.6c0.7,3.7,1.5,7.3,2.7,12.7c3.1-7.8,5.7-13.8,8.1-20c8.9-22.6,17.9-45.2,26.6-67.8
		c1.4-3.7,3.4-5.1,7.4-4.9c10.1,0.3,20.1,0.1,31.1,0.1c-4.5,10.7-8.7,20.7-12.8,30.6c-13.9,33.3-28,66.7-41.7,100.1
		c-1.7,4.1-3.9,5.1-8,5c-8.3-0.2-16.6-0.4-24.9,0.1c-5,0.3-6.9-1.6-8-6.2c-8.3-32.9-17.1-65.7-25.1-98.7
		c-2.4-9.9-7.3-16.3-16.9-19.2c-7.3-2.3-14.7-4.7-22-7c-1.8-0.6-3.5-1.1-5.3-1.6C-296.6-315.3-296.5-315.9-296.5-316.5z"/>
	<path class="st1" d="M-79.8-214.4c11.3,2.2,21.7,5,32.3,6.1c5.8,0.6,12.4-0.6,17.8-2.9c9.4-3.9,10.1-13.5,2-19.7
		c-3.3-2.5-7-4.4-10.6-6.5c-4.5-2.6-9.1-4.8-13.5-7.5c-30.7-18.9-21-52.3,0.4-65c23-13.7,47-12.4,72.1-4.6c-2,9.6-4,18.8-5.6,26.4
		c-11.7-1.3-22.5-2.6-33.4-3.8c-1.5-0.2-3.2,0.1-4.7,0.6c-5.5,1.5-10.9,3.7-11.9,10.1c-0.9,5.8,3.6,8.9,7.9,11.4
		c6.6,4,13.5,7.4,20.1,11.3c13.5,8,22.5,18.9,21,35.6c-1.4,16.4-10,28.3-24.6,35.3c-23.4,11.2-47.6,9.4-71.6,1.9
		c-1.4-0.4-3-3.6-2.8-5.2C-83.4-199-81.4-207.1-79.8-214.4z"/>
	<path class="st1" d="M-116.2-317.4c11.8,0,23,0,34.7,0c-3,14.3-5.9,28.2-8.8,42.1c-6.2,29.1-12.6,58.3-18.6,87.4
		c-0.9,4.6-2.7,6.1-7.3,5.9c-9.2-0.4-18.5-0.1-28.8-0.1C-135.3-227.7-125.8-272.5-116.2-317.4z"/>
</g>
<g>
	<g>
		<path class="st1" d="M1025.2-286c0.6-12.5,0.4-24.8,1.8-36.9c3.8-32.5,32-60.5,64.3-64.6c42.1-5.3,76.3,17.6,87.1,58.7
			c1.6,5.9,1.9,12.3,2.1,18.4c0.4,8.1,0.1,16.2,0.1,25c12.4,0,24.1,0,35.9,0c10.5,0,14.9,3.9,15.8,14.3c2.6,28.6,5.1,57.3,7.7,85.9
			c3.3,35,6.7,70.1,10,105.1c1.5,16.7,3.5,33.3,4.1,50c1.1,31-21.7,54.1-52.7,54.1c-65.1,0.1-130.3,0-195.4,0
			c-34.3,0-57.6-26.9-53.6-61c2.6-21.9,4.2-44,6.3-66c2.5-26.7,5.1-53.4,7.5-80.1c1.9-20.5,3.6-41.1,5.4-61.6
			c0.8-9.6,1.7-19.2,2.7-28.8c0.8-7.7,5.9-11.9,14.1-12c12-0.1,24.1-0.1,36.1-0.2C1024.6-285.6,1024.8-285.7,1025.2-286z
			 M998.9-259.4c-1.6,17.6-3,34.7-4.6,51.8c-3.2,35.3-6.6,70.5-9.8,105.8c-2.1,22.4-3.9,44.9-6.3,67.3c-2.2,20,8.8,32.9,28.9,32.9
			c64.1,0,128.1,0,192.2,0c19.9,0,30.9-12.5,28.9-32.2c-2.6-26-5.2-52.1-7.5-78.2c-3.7-40.6-7.2-81.2-10.8-121.8
			c-0.8-8.5-1.7-16.9-2.6-25.3c-9.2,0-17.7,0-26.7,0c0,2.7,0,5,0,7.3c0,10.3,0.2,20.6-0.1,30.9c-0.2,7.7-6,13.1-13.2,12.9
			c-7-0.2-12.3-5.5-12.5-13c-0.2-6.7-0.1-13.3-0.1-20c0-6.1,0-12.3,0-18.3c-34.9,0-68.8,0-103.2,0c0,2.7,0,5,0,7.3
			c0,10.3,0.2,20.6-0.1,30.9c-0.2,7.7-5.9,13.1-13.1,13c-7-0.2-12.3-5.5-12.6-12.9c-0.2-6.2-0.1-12.5-0.1-18.7c0-6.6,0-13.1,0-19.8
			C1016.4-259.4,1008.1-259.4,998.9-259.4z M1051.6-285.9c34.8,0,68.8,0,103.1,0c0-9.7,0.4-18.9-0.1-28.1
			c-1.3-25-18.8-43.8-44.7-48.2c-21.9-3.8-45.6,9.9-54.4,31.4C1049.5-316.4,1052.1-301.2,1051.6-285.9z"/>
	</g>
</g>
<g>
	<path class="st1" d="M-545.9-34.8c3,0,5.5,0,8,0c71.9,0,143.7,0,215.6,0c22.4,0,37.3,12.1,41,33.9c0.9,5.4,0,11.3-0.9,16.9
		c-5.2,31.7-10.6,63.4-16.2,95c-3.2,18.5-18.5,31.3-37.3,31.3c-57.7,0.1-115.5,0.1-173.2,0c-18.5,0-34-13.4-37.2-31.5
		c-9.7-54.8-19.3-109.6-29-164.4c-0.4-2.1-0.4-4.2-0.9-6.2c-2.3-10-5.9-12.8-16.3-12.8c-8.4,0-16.9,0.1-25.3,0
		c-8-0.1-13.6-5.5-13.5-12.8c0.1-7.1,5.4-12.5,13.1-12.5c12,0,24.1-0.7,35.9,0.9c16.3,2.2,27.8,14.9,30.6,31.1
		C-549.7-55.9-547.9-45.7-545.9-34.8z M-541.1-9.5c0,2-0.2,3.1,0,4.1c3.4,19.2,6.8,38.5,10.2,57.7c3.2,18,6.3,36,9.8,53.9
		c1.5,7.5,5.7,10.8,13.3,10.8c56.7,0.1,113.3,0.1,170,0c8.1,0,12.5-3.8,13.9-11.7c1.6-8.9,3.1-17.8,4.6-26.7
		c3.9-23.2,8.1-46.3,11.7-69.6c2.1-13.9-2.3-18.5-16.5-18.5c-69.9,0-139.9,0-209.8,0C-536.1-9.5-538.4-9.5-541.1-9.5z"/>
	<path class="st1" d="M-529.9,211.8c0-24.4,19.7-44.2,44-44.3c24.7-0.1,44.6,19.6,44.6,44.3c0,24.6-19.9,44.4-44.6,44.3
		C-510.2,256-529.9,236.2-529.9,211.8z M-485.8,230.8c10.2,0.2,19-8.4,19.1-18.7c0.1-10.3-8.4-19-18.7-19.2
		c-10.2-0.1-19,8.4-19.2,18.7C-504.7,221.9-496.1,230.6-485.8,230.8z"/>
	<path class="st1" d="M-359.3,256.1c-24.6-0.1-44.3-20.1-44.1-44.8c0.2-24.3,20.1-43.9,44.5-43.8c24.6,0.1,44.2,20,44.1,44.8
		C-314.9,236.6-334.9,256.2-359.3,256.1z M-358.6,192.9c-10.2-0.3-19.1,8.1-19.4,18.4c-0.3,10.2,8.1,19.1,18.4,19.4
		c10.2,0.4,19.2-8.1,19.4-18.4C-339.9,202.1-348.3,193.2-358.6,192.9z"/>
</g>
<g>
	<g>
		<g>
			<g>
				<g>
					<g>
						<path class="st1" d="M286.6-562l31.9,55.3l-38.9,22.5l-33.7-58.4c-0.8-1.4-1.7-2.6-2.7-3.4c-0.8-0.8-1.7-1.3-2.6-1.7
							c-1.5-0.6-2.9-0.7-4.4-0.3c-0.6,0.2-1.1,0.4-1.7,0.7c-0.5,0.3-1,0.6-1.3,1c-1.2,1.1-1.9,2.4-2.1,4.1c-0.1,0.8-0.1,1.6,0.1,2.4
							c0.2,1.5,0.8,3.1,1.8,4.7l9.4,16.3c0,0,0,0,0,0c0.1,0.2,0.2,0.5,0.4,0.7l7,12.2l-0.2,0.1l16.9,29.3l-38.7,22.4l-53.5-92.6
							l38.8-22.4l4.9,8.5l0.1-0.1l2.8,4.9c0-5.5,1.2-10.7,3.6-15.5c1.1-2.3,2.7-4.5,4.5-6.4c1.9-2,4.1-3.7,6.7-5.3
							c0.2-0.2,0.5-0.3,0.7-0.5c0.5-0.3,0.9-0.5,1.4-0.7c0.6-0.3,1.2-0.6,1.8-0.9c2.1-1,4.3-1.7,6.4-2.1c5.7-1.2,11.4-0.5,17.1,2
							c1.1,0.5,2.1,1,3.1,1.6c0,0,0.1,0,0.1,0.1c2.5,1.4,5,3.2,7.3,5.2c0,0,0,0,0,0c4.6,4,8.8,9.4,12.6,15.9
							C286.3-562.4,286.5-562.2,286.6-562z"/>
					</g>
				</g>
				<g>
					<g>
						<path class="st1" d="M355.5-443.2c-6.3-10.6-16.5-17.5-27.7-20.1c-4.4-1-9.1-1.4-13.7-1c-6.2,0.5-12.4,2.4-18.1,5.7l-14.9,8.6
							c-2.9,1.7-5.5,3.6-7.8,5.8c-14.7,13.6-18.6,36.1-8.2,54.1c0,0,27.1,46.8,27.9,47.9l9.7,16.6l13.9,23.8l0.6,1l4.7,8.2l17.7,31
							c2.7,4.6,2.1,8.1-1.7,10.3c-0.8,0.4-1.5,0.7-2.2,0.9l-1,0.3c-0.4,0.1-0.7,0.2-1.1,0.2c-0.1,0-0.2,0-0.3,0
							c-2.6,0.2-4.7-1.1-6.4-4.1l-34-58.8c0,0.1,0,0.1,0,0.2c-0.8,3.6-2.1,7-4,10.3c-0.5,0.9-1.1,1.9-1.7,2.8
							c-0.2,0.3-0.4,0.6-0.7,0.9c-0.3,0.5-0.7,1-1,1.4c-0.4,0.5-0.8,1-1.2,1.5c-0.3,0.4-0.6,0.7-0.9,1c-3.5,4-7.9,7.7-13.2,11.2
							c-0.5,0.3-1,0.7-1.6,1c-0.9,0.5-1.7,1-2.5,1.5c-0.8,0.5-4,1.8-4.7,2.6l-45.7,26.4l0,0l-7.5,4.3c-3.6,2.1-7.4,2.3-11.4,0.9
							c-4.1-1.4-7.2-4.1-9.4-7.9l-68.4-118.5l-0.1,0.1l-0.4-0.8l-39,22.5l78.2,135.4c12.1,20.9,39,28.1,59.9,16l0.7-0.4
							c2.6-1,5.2-2.3,7.8-3.8l45.5-26.3c0,0,0,0,0,0l12.1-7l8.5,14.8c2.1,3.6,4.6,6.8,7.4,9.5c0,0,0.1,0.1,0.1,0.1
							c1,1.1,2,2.1,3.2,3c2.3,1.8,4.8,3.3,7.4,4.5c0,0,0.1,0,0.1,0.1c12.7,6.4,28.4,6.5,41.6-1.1l14.9-8.6c1.6-0.9,3.1-1.9,4.5-3
							c0,0,0,0,0.1,0c4.9-3.8,8.9-8.4,11.8-13.7c0.2-0.4,0.4-0.8,0.6-1.2c0.3-0.6,0.6-1.2,0.9-1.8c0.2-0.6,0.5-1.1,0.7-1.7
							c0.1-0.2,0.1-0.3,0.2-0.5c0.2-0.6,0.5-1.2,0.7-1.8c0-0.1,0.1-0.1,0.1-0.2c0.3-0.8,0.6-1.7,0.8-2.5c0.2-0.6,0.3-1.2,0.4-1.7
							c0.1-0.6,0.3-1.2,0.4-1.7c0.1-0.6,0.2-1.2,0.3-1.7c0.1-0.6,0.2-1.2,0.2-1.8c0-0.3,0-0.6,0.1-0.9c0-0.3,0-0.6,0.1-0.9
							c0.1-1.2,0.1-2.4,0.1-3.6c0-0.5,0-0.9,0-1.3c0-0.5,0-0.9-0.1-1.4c0-0.5-0.1-1-0.1-1.5c-0.1-0.6-0.1-1.2-0.2-1.8
							c-0.1-0.6-0.2-1.3-0.3-1.9c-0.1-0.7-0.3-1.3-0.4-1.9c0,0,0,0,0,0c-0.2-0.6-0.3-1.3-0.5-1.9c0,0,0,0,0,0
							c-0.2-0.6-0.4-1.3-0.6-1.9c-0.4-1.3-0.9-2.5-1.5-3.8c-0.3-0.6-0.5-1.2-0.8-1.7c0,0,0,0-0.1-0.1c-0.3-0.6-0.7-1.2-1-1.8
							l-29.7-51.4c-0.7-1.2-1.4-2.4-2.2-3.5l14.5-8.4c8.7-5,15.1-12.7,18.6-21.4c0,0,0,0,0-0.1c1.8-4,2.8-8.2,3.1-12.7
							c0.8-8.7-1-17.6-5.7-25.7l-25.7-44.4C355.8-442.8,355.6-443.1,355.5-443.2z M302.3-417c-2.4-4.2-1.8-7.5,1.7-9.9c0,0,0,0,0,0
							c3.9-1.9,7-0.7,9.4,3.5l31,53.6c0,0,0,0,0,0c0,0,0,0,0,0c1.9,3.8,1.2,6.9-2.1,9.1c0,0,0,0,0,0c-3.6,1.7-6.6,0.9-9-2.7
							c0,0,0,0,0,0L302.3-417z"/>
					</g>
				</g>
			</g>
		</g>
		<g>
			<path class="st1" d="M258.1-447c-0.8,0.9-1.6,1.8-2.3,2.7c-7,8.9-10.2,20.3-9.1,31.6c0.5,5.2,2,10.4,4.5,15.3
				c-2.3,1.4-4,3.8-3.5,6.6c0.3,1.8,1.2,3.4,2.1,4.9c7.2,11.7,13.8,23.9,20.7,35.8c0.1,0.1,0.1,0.2,0.2,0.3
				c8.4,16.5,5.4,36.2-6.5,49.4c-2.4,2.6-5.1,5-8.1,7c-0.8,0.5-1.6,1.1-2.4,1.5l-14.9,8.6c-5.3,3.1-11.1,4.9-16.9,5.5
				c-3.5,0.4-7.1,0.4-10.6-0.1c-0.6-0.1-1.1-0.2-1.6-0.2c-1.6-0.3-3.2-0.6-4.8-1.1c-0.5-0.1-0.9-0.3-1.4-0.4c0,0-0.1,0-0.1,0
				c-0.8-0.2-1.6-0.5-2.4-0.9c-9.1-3.4-17.1-9.9-22.3-18.9l-22.4-38.7c-2.4-4.2-4.8-8.4-7.2-12.6l-27.5-47.7
				c-4.1-7.1-8.2-14.2-12.3-21.3l-13-22.5c-0.3-0.5-0.5-0.9-0.8-1.4c-0.2-0.4-0.5-0.8-0.7-1.3c-0.1-0.3-0.3-0.6-0.5-0.9l0,0
				c-1.8-3.3-3.4-6.8-4.7-10.3c-2-5.2-3.1-10.1-3.3-14.9c-0.1-8.2,2.2-16.3,6.4-23.2c0.1-0.1,0.2-0.3,0.3-0.4
				c3.7-5.9,8.8-11,15.2-14.7l14.9-8.6c5.2-3,10.8-4.8,16.5-5.5c0,0,0.1,0,0.1,0c1.6-0.2,3.2-0.3,4.8-0.3c2.1,0,4.2,0.1,6.3,0.4
				c1,0.1,2.1,0.3,3.1,0.5c0,0,0.1,0,0.1,0c0.7,0.2,1.5,0.3,2.2,0.5c0.5,0.1,1.1,0.3,1.6,0.5c2.1,0.7,4.3,1.5,6.3,2.5
				c1.5,0.7,3,1.6,4.5,2.5l0,0c5.7,3.7,10.7,8.7,14.3,15l29.6,51.4c0.9,1.5,1.6,3,2.3,4.6c-0.3,0.1-0.5,0.3-0.8,0.4c0,0,0,0,0,0
				l-0.6,0.3c-0.5,0.3-0.9,0.5-1.4,0.8c-0.5,0.3-1,0.6-1.4,0.9l-0.2,0.1c-0.2,0.1-0.4,0.3-0.6,0.4c-0.6,0.4-1.2,0.8-1.7,1.1
				c-3.7,2.4-7,5-9.9,7.6c0,0,0,0,0,0c-4.8,4.4-8.4,9.1-10.8,14c-1.2,2.4-2.2,4.9-2.7,7.4c-0.1,0.4-0.2,0.7-0.2,1
				c-0.1,0.4-0.2,0.8-0.3,1.3l0,0c0,0.1-0.1,0.2-0.1,0.3l-22.2-38.5c0,0-2.7-4.7-5.2-9.1l-7.9-13.8c-0.1-0.2-0.2-0.4-0.4-0.6
				c-0.7-1.2-1.6-2-2.5-2.6c-0.5-0.3-0.9-0.5-1.4-0.7c-0.2-0.1-0.4-0.1-0.6-0.2c-1.5-0.3-3.2,0-5,0.9c0.1-0.1,0.1-0.1,0.2-0.1
				l-0.6,0.4l0,0l0,0c0,0,0,0-0.1,0l-0.7,0.4c-3.9,2.4-3.6,6.3-1.5,9.9l42.4,73.4c11.4,19.7,22.8,39.5,34.2,59.2
				c1.3,2.3,3.2,4.7,5.9,5.2c0.7,0.1,1.4,0.1,2.1,0c0.4-0.1,0.8-0.2,1.2-0.4l0,0l1.4-0.8c0.3-0.1,0.5-0.3,0.8-0.4
				c0.2-0.1,0.4-0.2,0.5-0.4c0.4-0.3,0.7-0.6,1-0.9c0,0,0,0,0,0c1-1.1,1.6-2.5,1.8-4c0-0.4,0-0.9-0.1-1.3c-0.2-1.1-0.7-2.2-1.4-3.4
				l-16.2-28c-0.3-0.5-0.6-1-0.9-1.5l-0.3-0.6c-0.9-1.6-1.9-3.2-2.9-4.7c0,0,0,0,0,0c-0.2-0.5-0.5-1-0.7-1.5
				c-0.1-0.2-0.2-0.4-0.3-0.6c-0.9-1.9-1.6-3.8-2.3-5.8c-0.8-2.4-1.6-4.9-2.1-7.5c0,0,0,0,0-0.1c-0.3-1.5-0.5-3.1-0.7-4.7
				c-0.2-2.1-0.3-4.2-0.2-6.4c0.1-1.7,0.3-3.3,0.6-4.9c1-4.3,2.9-8.5,5.4-12.4c0.1-0.2,0.2-0.3,0.3-0.5c3.7-6.4,9-12,15.9-16
				l2.2-1.3c3.7-2.3,7.5-4.4,11.3-6.5c0,0,3.8-2,4.1-2.1c4.5-2.2,9.2-3.6,13.9-4.2c0,0,0.1,0,0.1,0C254.7-446.9,256.4-447,258.1-447
				z"/>
		</g>
	</g>
</g>
</svg>
