<?xml version="1.0" encoding="utf-8"?>
<!-- Generator: Adobe Illustrator 24.0.2, SVG Export Plug-In . SVG Version: 6.00 Build 0)  -->
<svg version="1.1" id="Capa_1" xmlns="http://www.w3.org/2000/svg" xmlns:xlink="http://www.w3.org/1999/xlink" x="0px" y="0px"
	 viewBox="0 0 512 512" style="enable-background:new 0 0 512 512;" xml:space="preserve">
<style type="text/css">
	.st0{fill:#F7F7F6;}
	.st1{fill:#FFFFFF;}
</style>
<g>
	<g>
		<path class="st0" d="M1146,695c23.2,0,46.3,0,69.5,0c44.7,0,80.4,29.2,88.9,73c1,5.4,1.3,10.9,1.3,16.4c0.1,47,0.1,94,0,141
			c-0.1,44.2-29.7,80.1-73.1,88.4c-5.4,1-10.9,1.2-16.4,1.2c-47,0.1-94,0.1-141,0c-44.1-0.1-80.2-30-88.2-73.3
			c-1-5.5-1.2-11.3-1.2-16.9c-0.1-46.5-0.1-93,0-139.5c0-44.8,28.9-80.2,72.9-89c5.5-1.1,11.3-1.3,16.9-1.3
			C1099,694.9,1122.5,695,1146,695z M1277.4,855.1c0-22.7,0.3-45.3-0.2-68c-0.1-7.7-1-15.8-3.4-23c-8.6-25.6-30.5-40.6-58.9-40.7
			c-46.2-0.2-92.3-0.2-138.5,0.1c-7.2,0-14.7,1.1-21.5,3.3c-25.9,8.7-40.8,30.8-40.8,59.9c-0.1,45.5-0.1,91,0,136.5
			c0,5.3,0.3,10.7,1.5,15.9c6.7,29.4,29.9,47.5,61.2,47.6c46,0.1,92,0.1,138,0c11.7,0,22.8-2.1,32.9-8.4
			c20.3-12.6,29.7-31.1,29.7-54.8C1277.4,900.8,1277.4,877.9,1277.4,855.1z"/>
		<path class="st0" d="M1145.5,772.6c45.3-0.3,82.5,36.8,82.7,82.4c0.2,45.4-37,82.6-82.5,82.6c-45.3,0-82-36.5-82.5-82.1
			C1062.8,810.2,1099.8,772.9,1145.5,772.6z M1146.2,801c-29.9-0.1-54.4,24-54.5,53.6c-0.1,29.9,24,54.4,53.6,54.5
			c29.9,0.1,54.4-24,54.5-53.6C1199.8,825.6,1175.7,801.1,1146.2,801z"/>
		<path class="st0" d="M1231.4,790.1c-11.3-0.1-20.6-9.5-20.6-20.7c0-11.5,9.4-20.8,21.1-20.7c11.4,0.1,20.7,9.4,20.7,20.6
			C1252.6,780.7,1243,790.2,1231.4,790.1z"/>
	</g>
</g>
<g>
	<path class="st0" d="M1434.9,903.9c-16.8,0-32.6,0-48.7,0c0-19,0-37.7,0-56.9c16.1,0,32,0,48.6,0c0-2.2,0-4,0-5.7
		c0-13.7-0.4-27.3,0.2-41c0.8-18.4,5.6-35.5,18.5-49.3c11.1-12,25.2-19,41.3-20c18.7-1.1,37.5-0.3,56.7-0.3c0,18.1,0,34.8,0,52.1
		c-5.9,0-11.8-0.1-17.8,0c-6.3,0.1-12.7,0.2-18.9,0.8c-13.5,1.4-20.1,7.6-20.7,21c-0.6,13.8-0.1,27.6-0.1,42c18.5,0,36.9,0,56.1,0
		c-2.5,19.3-4.9,38-7.4,57c-16.2,0-32.1,0-48.7,0c0,48.7,0,97.1,0,145.8c-19.9,0-39.1,0-59,0
		C1434.9,1001.2,1434.9,952.9,1434.9,903.9z"/>
</g>
<g>
	<path class="st0" d="M1091.6,1075.5c0-37.4,0-74.1,0-111.2c10.1,0,20,0,30.3,0c2.3-14.7,4.5-28.9,6.8-43.7c-15.5,0-30.2,0-45.8,0
		c0-9-0.1-17.4,0-25.8c0-3.5-0.2-7.1,0.7-10.4c2.8-10.7,10.1-15.9,22.2-16.3c4.8-0.2,9.7-0.1,14.5-0.1c4.7,0,9.3,0,14.4,0
		c0-12.7,0-25.3,0-38.4c-5.8-0.7-11.7-1.7-17.7-2.1c-13.3-0.8-26.6-1.8-39.6,2.3c-22.1,6.9-34.4,22.3-37.2,44.7
		c-1.6,13-0.9,26.3-1.1,39.4c0,2,0,3.9,0,6.5c-11.9,0-23.3,0-34.8,0c0,14.8,0,28.9,0,43.4c11.5,0,22.7,0,34.4,0
		c0,37.3,0,74.2,0,111.1c-64-7.2-131.7-64.8-131.9-153.8c-0.2-87.6,72.5-159.5,162.7-155.2c83.6,4,153.2,76.2,146.5,167.4
		c-3.2,43.5-22,79.8-55.2,108.2C1140.8,1058.6,1118,1070.2,1091.6,1075.5z"/>
</g>
<g>
	<path class="st0" d="M1325.8,507.3c-41.5-34-38.8-90-7.3-120.8c31.7-31,83.1-30.5,113.9,1.5c30.6,31.8,31.3,86.6-8.2,118.8
		c8.1,5.2,16.8,9.9,24.4,16c30.2,24.3,45.9,56,45.9,94.9c0,22.4-17.4,39.5-40.3,39.6c-53,0.2-106,0.3-159,0
		c-25.5-0.1-42.6-21.1-40.4-46.6c2.2-26.4,10.9-49.8,27.7-70.2c10.6-12.9,23.5-23,38.5-30.6C1322.4,509.1,1323.8,508.3,1325.8,507.3
		z M1374.7,630.4c26.2,0,52.3,0,78.5,0c9.2,0,15-5.6,14.8-14.4c-0.1-4.3-0.3-8.7-1.1-12.9c-8.5-51.2-54.2-85.1-105.5-78.4
		c-44.1,5.7-79.3,45.3-80.1,89.9c-0.2,10.6,5,15.9,15.8,15.9C1323,630.4,1348.9,630.4,1374.7,630.4z M1321.4,443.4
		c-0.2,29.3,24.1,53.7,53.2,53.7c29.4-0.1,53.6-24.2,53.5-53.4c0-29.1-23.9-53.1-53-53.3C1345.7,390.2,1321.5,414.1,1321.4,443.4z"
		/>
</g>
<g>
	<g>
		<path class="st1" d="M886.7,133c103.3,0,206.2,0,309.5,0c0.1,1.8,0.3,3.4,0.3,5c0,35,0.1,70,0,105c-0.1,23.1-14.8,42.1-37.2,47.8
			c-4.6,1.2-9.5,1.7-14.3,1.7c-69,0.1-138,0.1-206.9,0.1c-24.6,0-43-13.5-49.7-36.2c-1.1-3.6-1.7-7.5-1.7-11.3
			c-0.1-36.3-0.1-72.6-0.1-109C886.5,135.2,886.6,134.4,886.7,133z M1094.9,199.3c-16.8-0.1-30.4,13.2-30.5,29.8
			c-0.1,16.6,13.4,30.5,29.9,30.6c16.9,0.2,30.7-13.3,30.7-30.2C1125.1,212.8,1111.8,199.4,1094.9,199.3z M1116.4,201.1
			c8.8,7.4,13.9,16.6,14,28.1c0.1,11.7-5.1,21-13.9,28.7c11.8,4.5,25.1-0.1,33-10.8c8-10.8,7.6-25.9-0.9-36.6
			C1141,200.8,1126.9,196.6,1116.4,201.1z"/>
		<path class="st1" d="M887.2,101.4c2-14.1,8.8-24.9,19.8-33.1c8.7-6.5,18.7-9.3,29.5-9.3c70-0.1,140-0.1,209.9,0
			c23.7,0,42,14.4,48.3,37.3c0.4,1.6,0.6,3.2,0.9,5.2C1092.9,101.4,990.5,101.4,887.2,101.4z"/>
	</g>
</g>
<g>
	<path class="st1" d="M813.5-429.2c34,0.7,66.2,7.4,95.6,24.9c15.7,9.4,29.1,21.2,37.6,37.7c14.5,27.9,8.1,65.5-14.5,89.4
		c-19.7,20.8-44.4,32.1-71.8,37.6c-38.3,7.8-76.5,6.9-113.8-6c-24.3-8.4-45.4-21.5-59.8-43.6c-19.8-30.4-19.9-74.9,16.7-104.3
		c22.8-18.3,49.2-28.3,77.7-32.6C791.9-427.7,802.8-428.2,813.5-429.2z M948.7-340.5c-0.8-0.3-1.2-0.5-1.4-0.5
		c-17.2,5.3-34.3,10.5-51.4,16c-0.9,0.3-1.9,2.3-1.8,3.3c1.1,11.8-2,15.6-14,17.7c-1.1,0.2-2.6,1.5-2.9,2.5
		c-2.1,7.5-7.4,10.5-14.7,11.5c-1.6,0.2-3.5,1.5-4.5,2.8c-3.7,5.1-8.3,8-14.8,7.6c-1.2-0.1-2.8,0.2-3.6,0.9
		c-6.3,5.5-13.2,4.5-20.2,1.8c-2.7-1.1-4.7-1.1-7.4,0.5c-7.7,4.6-15.7,2.8-21.4-4c-1.2-1.4-3.3-2.6-5.1-2.7
		c-5.2-0.2-9.2-2.2-12.8-5.9c-1.3-1.4-3.5-2.4-5.3-2.7c-6.3-0.8-10.7-4-13.8-9.5c-0.8-1.4-2.7-2.8-4.2-3
		c-8.4-1.3-13.7-7.3-12.5-15.6c0.4-3.2-0.5-4.8-3.1-5.8c-10.6-4-21-8.3-31.8-11.8c-7.1-2.4-14.6-3.7-22.3-5.5
		c-1.5,14.5,2.1,26.7,9.3,38c8.7,13.7,20.5,24.2,34.7,31.6c54.5,28.5,110.4,29.7,166.9,6.9c22.2-9,40.9-23,52.2-45.1
		C947.5-320.6,949.6-330.3,948.7-340.5z M823.9-297.2c0.5-0.5,0.9-0.9,1.4-1.4c1.1,0.6,2.3,1.1,3.2,1.9c3.6,3.2,7.1,6.6,10.6,9.9
		c3.7,3.5,8.8,3.4,12.5-0.3c3.7-3.7,1.2-6.6-1.3-9.4c-3.2-3.6-6.5-7.1-9.7-10.8c-1-1.2-1.7-2.8-2.5-4.1c0.4-0.3,0.7-0.6,1.1-1
		c1.4,1,2.9,1.8,4.2,3c4,3.8,7.9,7.6,11.9,11.5c4.3,4.1,10.5,3.9,14.7-0.3c3.6-3.6,3.2-7.3-1.4-12.1c-4.9-5-9.9-9.9-14.8-14.9
		c-1.1-1.1-1.8-2.6-2.6-4c0.4-0.4,0.8-0.7,1.1-1.1c1.4,1,2.9,1.8,4.2,2.9c6,5.3,11.9,10.7,17.9,15.9c4.1,3.6,9.9,3.1,13.5-0.7
		c2.9-3.2,2.4-8-1.7-11.4c-17.9-15.4-35.9-30.7-54-45.8c-6.3-5.2-13.5-6.5-20.8-1.7c-6.7,4.4-13.1,9.1-19.7,13.6
		c-7.1,4.8-14.7,4.7-22.3,1.2c-6-2.8-6.7-6.9-2.3-11.7c4-4.4,8-8.8,12-13.2c-2.7-0.2-4.8,0.2-6.9,0.9c-8.6,2.9-17.4,3.2-26.1,0.8
		c-11-3.1-22.1-6.2-32.9-10c-3.6-1.3-6.1-0.8-8.2,1.7c-6,7.1-12.5,13.9-17.6,21.5c-3.5,5.1-5.1,11.5-7.7,17.6c3.6,1.1,6,2,8.4,2.6
		c17.5,4,34.8,8.6,50.6,17.7c0.9,0.5,2.7,0.6,3.5,0.1c6.8-4.3,12.9-3,18.6,2.2c8.1-4.1,15.4-3.7,21.6,3.6c0.5,0.6,1.7,1,2.5,1
		c13.1,0.2,16.6,3.2,18.9,15.9c13.5,3.2,17.4,9.2,14.9,23.1c6.8,4.1,12.9,4.3,17.5,0.1C832.1-287.6,828-292.4,823.9-297.2z
		 M769.1-363c5,4.9,12.4,5.7,19,1.5c5.4-3.5,10.3-7.9,15.6-11.6c13.1-9.1,21.1-9.1,33.3,0.9c16.7,13.7,33.1,27.8,49.4,41.9
		c2.2,1.9,3.8,1.8,6.2,0.9c13.1-4.7,26.3-9.3,39.5-13.8c5.1-1.7,10.5-2.8,16-4.3c-3.3-16.2-11.8-28.7-23.5-39.4
		c-2.4-2.2-4.1-2.4-6.9-1.1c-10.4,4.8-21.4,7.2-32.8,7.6c-13,0.5-25.3-2.5-37.2-7.9c-16.2-7.4-32.9-10.1-49.5-1.7
		C786.1-383.7,778.3-372.6,769.1-363z M713.8-394.1c11.9,3.2,22.7,6,33.4,9.1c8.7,2.5,17,1.4,25.5-0.9c8.6-2.3,16.8-5,24.9-9.1
		c17.4-8.8,35-5.7,52,2.1c15.8,7.2,32.1,9.8,49.1,5.8c5.8-1.4,11.4-3.4,18-5.4C864.6-433.2,764.9-432.9,713.8-394.1z M774.7-298.7
		c0.4,9.3,8.8,14.1,17,8c3.9,10.2,7.5,13.3,14.2,11.9c5.5-1.1,9.7-6.1,8.9-11.5c-0.4-2.6-1.6-6.3-3.6-7.2c-4.1-2-8.9-2.6-13.8-3.9
		c1.1-4.3,2.8-10-2.8-13.9c-4.6-3.2-9.4-2.4-14.1,1.5c-0.7-5.7-3.3-10-8.6-9.8c-4.3,0.1-8.6,2.6-13.1,4c-2.7-5.8-7-8.2-12.1-6
		c-4.3,1.9-6.4,7.2-4.5,11.3c2.5,5.5,7,6.5,14.8,3.3C757.1-297.4,766.2-293.9,774.7-298.7z"/>
	<path class="st1" d="M1121.9-254.2c5.2,0,9.9,0,14.7,0c0.7,0,1.6,0.4,2.1,1c4.2,4.3,9,6.6,14.8,3.8c6.2-3.1,8.2-8.8,8.1-15.4
		c0-0.5-0.2-1-0.4-2.3c-4.9,5.7-10.9,8-17.9,7.3c-11.3-1.1-20.2-9.7-22.5-22.7c-1.7-9.6-1.5-19.4,3.8-28.1c2-3.4,5-7,8.4-8.8
		c13.3-7.2,35-4.6,41.5,11c1.7,4,2.6,8.7,2.7,13c0.4,10.6,0.4,21.3,0.1,32c-0.3,10.7-3.9,20.2-14,25.3c-10.4,5.3-21,4.3-31-1.4
		C1126.7-242.5,1123.7-247.6,1121.9-254.2z M1162.4-291.3c-1.2-4-2.1-8.4-3.8-12.4c-2-4.6-6.2-6.4-11-6.1c-4.6,0.3-8.1,2.6-9.9,7.1
		c-2.7,6.7-3.1,13.5-1.4,20.4c1.5,6.3,4.3,8.8,10.4,9.6c6.1,0.7,10.5-1.4,12.8-7C1161-283.2,1161.4-287.1,1162.4-291.3z"/>
	<path class="st1" d="M1041.4-401.8c6-5.6,12.6-8.9,20.6-7.8c14.4,2,22.1,10.6,22.3,25.2c0.2,11.7,0,23.3,0,35c0,0.5-0.1,1-0.3,1.8
		c-4.4,0-8.7,0-13.7,0c0-12,0-23.9,0-35.9c0-6.8-3.8-11.2-9.8-11.7c-6.8-0.6-12.2,4.3-12.2,11.4c-0.1,10.2,0,20.3,0,30.5
		c0,1.8,0,3.6,0,5.7c-4.8,0-9.1,0-14.1,0c0-6.4,0-12.6,0-18.9c0-6,0.2-12,0-18c-0.2-6.5-4.6-10.7-10.8-10.7c-6.3,0-11,4.5-11.1,11
		c-0.1,10.3-0.1,20.7-0.1,31c0,1.8,0,3.6,0,5.7c-4.9,0-9.3,0-13.6,0c0-14.4-1.5-28.9,0.4-42.9c2.4-17.9,24.7-25.3,39.1-14.3
		C1039.1-403.9,1040-403,1041.4-401.8z"/>
	<path class="st1" d="M1360.5-401.1c0-5.4,0-9.6,0-13.9c0.1-10.3,4.8-14.4,15.8-13c0,2.5,0,5.2,0,7.8c0,16,0,31.9,0,47.9
		c-0.1,15.1-9.9,25.4-25,26.1c-3.8,0.2-7.6-0.2-11.4-0.7c-11.5-1.4-18.2-8.4-20.8-19.2c-2.7-11-1.8-21.8,4.1-31.8
		C1331.2-411.5,1348.6-413.5,1360.5-401.1z M1333.1-377.3c1.1,4,1.8,7.8,3.1,11.3c1.7,4.7,5.4,6.9,10.4,7.2
		c5.2,0.3,9.3-1.7,11.6-6.2c4.4-8.2,4.1-16.6-0.2-24.8c-2.4-4.6-6.6-6.5-11.6-6.3c-4.7,0.2-8.4,2.5-10,6.9
		C1335-385.3,1334.2-381.2,1333.1-377.3z"/>
	<path class="st1" d="M1013.4-268.1c0,6.5,0,11.8,0,17.1c0,8.8-2.1,10.9-10.8,10.9c-1.3,0-2.6,0-3.8,0c-0.4-0.5-0.7-0.8-0.7-1.1
		c0.1-19.6-0.1-39.3,0.3-58.9c0.2-10.1,7.3-18.8,17.1-20.8c6.5-1.4,13.6-1.9,20.2-0.9c10.7,1.6,16.4,9.6,19.1,19.5
		c2.8,10.1,1.8,20-2.6,29.7C1045.2-257.3,1024.1-254.6,1013.4-268.1z M1041.5-291c-1.5-4.5-2.4-9.3-4.7-13.3c-4.1-7-15.5-7-20-0.3
		c-4.6,6.8-4.7,19.8-0.1,26.7c5,7.5,16.5,7.3,20.7-0.8C1039.3-282.3,1040-286.4,1041.5-291z"/>
	<path class="st1" d="M1150.4-373.4c-14.9,0-29.1,0-43.4,0c0.4,11.9,11.6,18.9,21.6,13.1c5.4-3.2,10.6-3,16.1-3.1c1.3,0,2.6,0,4,0
		c-1.3,7.8-9.6,15.6-19.4,16.8c-6,0.7-12.4,0.5-18.2-1c-11.9-3-18.9-12.4-19.6-24.8c-0.2-3.8-0.4-7.7,0.1-11.5
		c1.4-11.2,6.9-20,17.9-23.7c11.3-3.8,22.5-3.2,31.9,5.1C1149.9-394.9,1151.1-384.8,1150.4-373.4z M1134.2-384.1
		c-0.6-8.1-5.7-12.8-13.4-12.8c-7.4-0.1-12.7,5-13.1,12.8C1116.4-384.1,1125.2-384.1,1134.2-384.1z"/>
	<path class="st1" d="M1214.4-323.2c18.5,0,30.6,12.8,30.5,32.1c-0.1,19.8-12,31.9-31.1,31.9c-18.7,0-30.5-12.5-30.4-32
		C1183.4-310.8,1195.5-323.2,1214.4-323.2z M1229.1-290.6c-0.2-0.1-0.5-0.1-0.7-0.2c0-1.5,0.1-3,0-4.5c-0.7-8.5-6-14.4-13.3-14.9
		c-7.5-0.6-13,4.2-15,12.9c-1.4,6-0.9,11.9,1.8,17.5c2.5,5.2,6.9,7.6,12.4,7.6c5.6,0,10-2.7,12.1-8
		C1227.7-283.5,1228.2-287.1,1229.1-290.6z"/>
	<path class="st1" d="M1411.8-346.1c-19-0.1-30.5-12.4-30.4-32.5c0.1-19.3,12.6-31.8,31.5-31.6c18.1,0.2,30.2,13.4,29.9,32.7
		C1442.5-357.8,1430.7-345.9,1411.8-346.1z M1427-377.4c-0.7-3.6-0.9-6.8-1.9-9.8c-2.2-6.4-7.4-10-13.5-9.8
		c-6.3,0.2-11.4,4.3-13.2,10.9c-1.8,6.4-1.6,12.8,1,19c2.4,5.4,6.7,8.1,12.6,8.1c5.9,0,10.3-2.7,12.4-8.2
		C1425.8-370.6,1426.3-374.3,1427-377.4z"/>
	<path class="st1" d="M1062.8-301.9c1.2-12.5,8.1-19.8,19.8-20.1c7-0.2,14.2,0.8,21.1,2.4c5.9,1.4,9.7,5.9,9.8,12.3
		c0.2,9.5,0.4,19,0.1,28.4c-0.3,9.1-5.6,15.4-14,17.4c-7.9,1.9-16.5,2.4-24.6,1.9c-8.1-0.4-13.5-7.3-14.4-15.5
		c-0.9-8.2,3.1-15.8,10.6-18.5c4.8-1.8,10-2.4,15-3.5c3.1-0.7,6.3-0.9,9.1-2.1c1.4-0.6,3-3,2.9-4.5c-0.1-1.8-1.5-4.2-3.1-5.1
		c-6.2-3.5-13.4-1.3-17,4.8c-0.6,0.9-1.9,2-2.9,2C1071.1-301.8,1067-301.9,1062.8-301.9z M1097.9-289.4c-5.2,1.1-10.4,2-15.5,3.4
		c-4.9,1.4-7.1,5.4-6.1,10c0.8,3.9,4.9,6.3,9.8,5.7C1095.6-271.5,1099.7-278.1,1097.9-289.4z"/>
	<path class="st1" d="M1261.6-389.1c1.1-11.4,5.9-17.3,16.1-19.6c8.3-1.9,16.5-1.4,24.5,1.6c6.7,2.5,10.2,7.2,10.3,14.3
		c0.1,8.7,0.1,17.3,0,26c-0.1,7.9-4,13.7-11,17c-9.4,4.4-19.4,4.8-29.3,2.6c-7.6-1.7-12.2-7.6-12.7-14.8
		c-0.6-8.8,2.8-15.8,10.3-18.7c4.6-1.8,9.6-2.4,14.5-3.5c3.2-0.7,6.7-0.9,9.7-2.2c1.6-0.7,3.2-3.2,3.2-4.8c0-1.7-1.7-4-3.3-4.9
		c-6.2-3.4-13.1-1.1-17,5c-0.6,0.9-1.9,1.8-3,1.8C1269.9-389,1265.9-389.1,1261.6-389.1z M1297-376.6c-5.3,1.2-10.4,2.1-15.3,3.5
		c-5.4,1.5-7.7,5.7-6.3,10.6c1.1,4,5.4,6,10.5,4.9C1294.9-359.4,1298.2-365,1297-376.6z"/>
	<path class="st1" d="M1254.3-386.9c-5.7,0-10.8,0-16.4,0c-1.7-6.2-5.4-10.2-12.7-9.5c-4.8,0.5-8.2,2.7-10,7.1
		c-3,7.6-2.9,15.3-0.4,23c1.6,4.9,5.7,7.2,11.3,7.4c5.3,0.2,9.1-2,10.6-7.2c0.8-2.8,2.2-3.6,5-3.5c4,0.2,7.9,0.1,11.8,0.1
		c1.3,8.8-8.7,21.6-21.6,23.2c-4.4,0.6-9,0.5-13.4-0.2c-9.3-1.3-15.7-6.6-19.6-15.2c-6.5-14.5-2.6-33.9,8.7-42.4
		c9.6-7.2,28.6-7.3,38.2-0.2C1251.3-400.1,1253.4-394.1,1254.3-386.9z"/>
	<path class="st1" d="M1193-408.9c0,5.1,0,9.9,0,14.6c-19.2,0.6-19,8-19,21.3c0,8.3,0,16.6,0,25.3c-5.1,0-10,0-16.1,0
		c0.6-13.6-0.1-27.5,2-41C1162.2-402.9,1176.9-411,1193-408.9z"/>
</g>
<g>
	<path class="st1" d="M473.6,323.6c-11,0-21.2,0-31.9,0c-1.5-6.4-2.9-12.9-4.5-20c-14.3,0-28.5-0.1-42.7,0.1c-1.2,0-2.4,1.5-3.4,2.5
		c-0.5,0.5-0.6,1.4-0.9,2.2c-2.1,5.1-2.8,12.1-6.5,14.7c-3.8,2.6-10.7,0.8-16.2,0.9c-6.1,0.1-12.2,0-19.3,0
		c4.6-11.1,9-21.4,13.3-31.7c12.7-30.4,25.6-60.8,38.1-91.3c3.6-8.9,9.5-13,19.1-12.7c8.9,0.3,17.7,0.1,26.9,0.1
		C454.8,233.5,464.1,278.3,473.6,323.6z M402,275.7c10.4,0,19.7,0,29.5,0c-3.5-16.9-6.9-33.2-10.4-49.5c-0.4,0-0.8,0-1.2,0
		C414,242.6,408.1,258.9,402,275.7z"/>
	<path class="st1" d="M38.5,189.5c1.8-0.4,3.7-1.2,5.5-1.2c17.8-0.1,35.6-0.1,53.4,0c10.3,0,15.9,4.8,17.9,15.3
		c4.1,21.5,8,43.1,12.1,64.6c0.7,3.7,1.5,7.3,2.7,12.7c3.1-7.8,5.7-13.8,8.1-20c8.9-22.6,17.9-45.2,26.6-67.8
		c1.4-3.7,3.4-5.1,7.4-4.9c10.1,0.3,20.1,0.1,31.1,0.1c-4.5,10.7-8.7,20.7-12.8,30.6c-13.9,33.3-28,66.7-41.7,100.1
		c-1.7,4.1-3.9,5.1-8,5c-8.3-0.2-16.6-0.4-24.9,0.1c-5,0.3-6.9-1.6-8-6.2c-8.3-32.9-17.1-65.7-25.1-98.7
		c-2.4-9.9-7.3-16.3-16.9-19.2c-7.3-2.3-14.7-4.7-22-7c-1.8-0.6-3.5-1.1-5.3-1.6C38.4,190.7,38.5,190.1,38.5,189.5z"/>
	<path class="st1" d="M255.2,291.6c11.3,2.2,21.7,5,32.3,6.1c5.8,0.6,12.4-0.6,17.8-2.9c9.4-3.9,10.1-13.5,2-19.7
		c-3.3-2.5-7-4.4-10.6-6.5c-4.5-2.6-9.1-4.8-13.5-7.5c-30.7-18.9-21-52.3,0.4-65c23-13.7,47-12.4,72.1-4.6c-2,9.6-4,18.8-5.6,26.4
		c-11.7-1.3-22.5-2.6-33.4-3.8c-1.5-0.2-3.2,0.1-4.7,0.6c-5.5,1.5-10.9,3.7-11.9,10.1c-0.9,5.8,3.6,8.9,7.9,11.4
		c6.6,4,13.5,7.4,20.1,11.3c13.5,8,22.5,18.9,21,35.6c-1.4,16.4-10,28.3-24.6,35.3c-23.4,11.2-47.6,9.4-71.6,1.9
		c-1.4-0.4-3-3.6-2.8-5.2C251.6,307,253.6,298.9,255.2,291.6z"/>
	<path class="st1" d="M218.8,188.6c11.8,0,23,0,34.7,0c-3,14.3-5.9,28.2-8.8,42.1c-6.2,29.1-12.6,58.3-18.6,87.4
		c-0.9,4.6-2.7,6.1-7.3,5.9c-9.2-0.4-18.5-0.1-28.8-0.1C199.7,278.3,209.2,233.5,218.8,188.6z"/>
</g>
<g>
	<g>
		<path class="st1" d="M1907.3-175.6c0.3-7.3,0.2-14.4,1-21.4c2.2-18.9,18.6-35.1,37.3-37.5c24.4-3.1,44.3,10.2,50.5,34
			c0.9,3.4,1.1,7.1,1.2,10.7c0.2,4.7,0.1,9.4,0.1,14.5c7.2,0,14,0,20.8,0c6.1,0,8.6,2.2,9.2,8.3c1.5,16.6,2.9,33.2,4.5,49.9
			c1.9,20.3,3.9,40.7,5.8,61c0.9,9.7,2,19.3,2.4,29c0.6,18-12.6,31.4-30.6,31.4c-37.8,0-75.6,0-113.4,0c-19.9,0-33.4-15.6-31.1-35.4
			c1.5-12.7,2.4-25.5,3.6-38.3c1.5-15.5,3-31,4.4-46.5c1.1-11.9,2.1-23.8,3.1-35.7c0.5-5.6,1-11.2,1.6-16.7c0.5-4.5,3.4-6.9,8.2-7
			c7-0.1,14-0.1,20.9-0.1C1906.9-175.3,1907-175.4,1907.3-175.6z M1892-160.2c-0.9,10.2-1.7,20.1-2.6,30
			c-1.9,20.5-3.8,40.9-5.7,61.4c-1.2,13-2.2,26-3.6,39c-1.3,11.6,5.1,19.1,16.8,19.1c37.2,0,74.3,0,111.5,0
			c11.6,0,17.9-7.2,16.8-18.7c-1.5-15.1-3-30.2-4.4-45.3c-2.1-23.6-4.2-47.1-6.3-70.7c-0.4-4.9-1-9.8-1.5-14.7c-5.3,0-10.2,0-15.5,0
			c0,1.6,0,2.9,0,4.2c0,6,0.1,12,0,18c-0.1,4.5-3.5,7.6-7.6,7.5c-4-0.1-7.1-3.2-7.3-7.5c-0.1-3.9,0-7.7,0-11.6c0-3.6,0-7.1,0-10.6
			c-20.2,0-39.9,0-59.9,0c0,1.5,0,2.9,0,4.2c0,6,0.1,12,0,18c-0.1,4.5-3.4,7.6-7.6,7.5c-4-0.1-7.1-3.2-7.3-7.5
			c-0.1-3.6,0-7.2,0-10.8c0-3.8,0-7.6,0-11.5C1902.2-160.2,1897.4-160.2,1892-160.2z M1922.6-175.5c20.2,0,39.9,0,59.8,0
			c0-5.6,0.2-11,0-16.3c-0.7-14.5-10.9-25.4-25.9-28c-12.7-2.2-26.4,5.7-31.6,18.2C1921.4-193.2,1922.9-184.4,1922.6-175.5z"/>
	</g>
</g>
<g>
	<path class="st1" d="M1213.2-128.1c2.4,0,4.4,0,6.4,0c56.8,0,113.6,0,170.4,0c17.7,0,29.5,9.5,32.4,26.8c0.7,4.3,0,8.9-0.7,13.3
		c-4.1,25.1-8.4,50.1-12.8,75.1c-2.6,14.6-14.6,24.7-29.5,24.8c-45.6,0.1-91.3,0.1-136.9,0c-14.7,0-26.9-10.6-29.4-24.9
		c-7.6-43.3-15.3-86.7-22.9-130c-0.3-1.6-0.3-3.3-0.7-4.9c-1.8-7.9-4.7-10.1-12.9-10.1c-6.7,0-13.3,0.1-20,0
		c-6.3-0.1-10.7-4.3-10.7-10.1c0.1-5.6,4.3-9.9,10.4-9.9c9.5,0,19.1-0.5,28.4,0.7c12.9,1.7,22,11.8,24.2,24.6
		C1210.2-144.8,1211.7-136.8,1213.2-128.1z M1217.1-108.1c0,1.6-0.1,2.4,0,3.2c2.7,15.2,5.3,30.4,8.1,45.6c2.5,14.2,5,28.4,7.8,42.6
		c1.2,6,4.5,8.5,10.5,8.5c44.8,0.1,89.6,0.1,134.4,0c6.4,0,9.9-3,11-9.3c1.3-7,2.5-14.1,3.7-21.1c3.1-18.3,6.4-36.6,9.2-55
		c1.7-11-1.9-14.6-13.1-14.6c-55.3,0-110.6,0-165.9,0C1221-108.1,1219.2-108.1,1217.1-108.1z"/>
	<path class="st1" d="M1225.9,66.9c0-19.3,15.6-35,34.8-35c19.6,0,35.2,15.5,35.3,35c0,19.4-15.8,35.1-35.3,35
		C1241.5,101.8,1225.9,86.1,1225.9,66.9z M1260.8,81.8c8.1,0.1,15.1-6.7,15.1-14.8c0.1-8.1-6.6-15-14.8-15.2
		c-8.1-0.1-15,6.7-15.1,14.8C1245.8,74.8,1252.6,81.7,1260.8,81.8z"/>
	<path class="st1" d="M1360.8,101.9c-19.4-0.1-35-15.9-34.9-35.4c0.1-19.2,15.9-34.7,35.1-34.6c19.5,0.1,35,15.8,34.9,35.4
		C1395.8,86.4,1380.1,101.9,1360.8,101.9z M1361.3,51.9c-8.1-0.2-15.1,6.4-15.4,14.6c-0.3,8.1,6.4,15.1,14.6,15.4
		c8.1,0.3,15.1-6.4,15.4-14.6C1376.1,59.2,1369.5,52.1,1361.3,51.9z"/>
</g>
<g>
	<g>
		<g>
			<g>
				<g>
					<g>
						<path class="st1" d="M286.6-562l31.9,55.3l-38.9,22.5l-33.7-58.4c-0.8-1.4-1.7-2.6-2.7-3.4c-0.8-0.8-1.7-1.3-2.6-1.7
							c-1.5-0.6-2.9-0.7-4.4-0.3c-0.6,0.2-1.1,0.4-1.7,0.7c-0.5,0.3-1,0.6-1.3,1c-1.2,1.1-1.9,2.4-2.1,4.1c-0.1,0.8-0.1,1.6,0.1,2.4
							c0.2,1.5,0.8,3.1,1.8,4.7l9.4,16.3c0,0,0,0,0,0c0.1,0.2,0.2,0.5,0.4,0.7l7,12.2l-0.2,0.1l16.9,29.3l-38.7,22.4l-53.5-92.6
							l38.8-22.4l4.9,8.5l0.1-0.1l2.8,4.9c0-5.5,1.2-10.7,3.6-15.5c1.1-2.3,2.7-4.5,4.5-6.4c1.9-2,4.1-3.7,6.7-5.3
							c0.2-0.2,0.5-0.3,0.7-0.5c0.5-0.3,0.9-0.5,1.4-0.7c0.6-0.3,1.2-0.6,1.8-0.9c2.1-1,4.3-1.7,6.4-2.1c5.7-1.2,11.4-0.5,17.1,2
							c1.1,0.5,2.1,1,3.1,1.6c0,0,0.1,0,0.1,0.1c2.5,1.4,5,3.2,7.3,5.2c0,0,0,0,0,0c4.6,4,8.8,9.4,12.6,15.9
							C286.3-562.4,286.5-562.2,286.6-562z"/>
					</g>
				</g>
				<g>
					<g>
						<path class="st1" d="M355.5-443.2c-6.3-10.6-16.5-17.5-27.7-20.1c-4.4-1-9.1-1.4-13.7-1c-6.2,0.5-12.4,2.4-18.1,5.7l-14.9,8.6
							c-2.9,1.7-5.5,3.6-7.8,5.8c-14.7,13.6-18.6,36.1-8.2,54.1c0,0,27.1,46.8,27.9,47.9l9.7,16.6l13.9,23.8l0.6,1l4.7,8.2l17.7,31
							c2.7,4.6,2.1,8.1-1.7,10.3c-0.8,0.4-1.5,0.7-2.2,0.9l-1,0.3c-0.4,0.1-0.7,0.2-1.1,0.2c-0.1,0-0.2,0-0.3,0
							c-2.6,0.2-4.7-1.1-6.4-4.1l-34-58.8c0,0.1,0,0.1,0,0.2c-0.8,3.6-2.1,7-4,10.3c-0.5,0.9-1.1,1.9-1.7,2.8
							c-0.2,0.3-0.4,0.6-0.7,0.9c-0.3,0.5-0.7,1-1,1.4c-0.4,0.5-0.8,1-1.2,1.5c-0.3,0.4-0.6,0.7-0.9,1c-3.5,4-7.9,7.7-13.2,11.2
							c-0.5,0.3-1,0.7-1.6,1c-0.9,0.5-1.7,1-2.5,1.5c-0.8,0.5-4,1.8-4.7,2.6l-45.7,26.4l0,0l-7.5,4.3c-3.6,2.1-7.4,2.3-11.4,0.9
							c-4.1-1.4-7.2-4.1-9.4-7.9l-68.4-118.5l-0.1,0.1l-0.4-0.8l-39,22.5l78.2,135.4c12.1,20.9,39,28.1,59.9,16l0.7-0.4
							c2.6-1,5.2-2.3,7.8-3.8l45.5-26.3c0,0,0,0,0,0l12.1-7l8.5,14.8c2.1,3.6,4.6,6.8,7.4,9.5c0,0,0.1,0.1,0.1,0.1
							c1,1.1,2,2.1,3.2,3c2.3,1.8,4.8,3.3,7.4,4.5c0,0,0.1,0,0.1,0.1c12.7,6.4,28.4,6.5,41.6-1.1l14.9-8.6c1.6-0.9,3.1-1.9,4.5-3
							c0,0,0,0,0.1,0c4.9-3.8,8.9-8.4,11.8-13.7c0.2-0.4,0.4-0.8,0.6-1.2c0.3-0.6,0.6-1.2,0.9-1.8c0.2-0.6,0.5-1.1,0.7-1.7
							c0.1-0.2,0.1-0.3,0.2-0.5c0.2-0.6,0.5-1.2,0.7-1.8c0-0.1,0.1-0.1,0.1-0.2c0.3-0.8,0.6-1.7,0.8-2.5c0.2-0.6,0.3-1.2,0.4-1.7
							c0.1-0.6,0.3-1.2,0.4-1.7c0.1-0.6,0.2-1.2,0.3-1.7c0.1-0.6,0.2-1.2,0.2-1.8c0-0.3,0-0.6,0.1-0.9c0-0.3,0-0.6,0.1-0.9
							c0.1-1.2,0.1-2.4,0.1-3.6c0-0.5,0-0.9,0-1.3c0-0.5,0-0.9-0.1-1.4c0-0.5-0.1-1-0.1-1.5c-0.1-0.6-0.1-1.2-0.2-1.8
							c-0.1-0.6-0.2-1.3-0.3-1.9c-0.1-0.7-0.3-1.3-0.4-1.9c0,0,0,0,0,0c-0.2-0.6-0.3-1.3-0.5-1.9c0,0,0,0,0,0
							c-0.2-0.6-0.4-1.3-0.6-1.9c-0.4-1.3-0.9-2.5-1.5-3.8c-0.3-0.6-0.5-1.2-0.8-1.7c0,0,0,0-0.1-0.1c-0.3-0.6-0.7-1.2-1-1.8
							l-29.7-51.4c-0.7-1.2-1.4-2.4-2.2-3.5l14.5-8.4c8.7-5,15.1-12.7,18.6-21.4c0,0,0,0,0-0.1c1.8-4,2.8-8.2,3.1-12.7
							c0.8-8.7-1-17.6-5.7-25.7l-25.7-44.4C355.8-442.8,355.6-443.1,355.5-443.2z M302.3-417c-2.4-4.2-1.8-7.5,1.7-9.9c0,0,0,0,0,0
							c3.9-1.9,7-0.7,9.4,3.5l31,53.6c0,0,0,0,0,0c0,0,0,0,0,0c1.9,3.8,1.2,6.9-2.1,9.1c0,0,0,0,0,0c-3.6,1.7-6.6,0.9-9-2.7
							c0,0,0,0,0,0L302.3-417z"/>
					</g>
				</g>
			</g>
		</g>
		<g>
			<path class="st1" d="M258.1-447c-0.8,0.9-1.6,1.8-2.3,2.7c-7,8.9-10.2,20.3-9.1,31.6c0.5,5.2,2,10.4,4.5,15.3
				c-2.3,1.4-4,3.8-3.5,6.6c0.3,1.8,1.2,3.4,2.1,4.9c7.2,11.7,13.8,23.9,20.7,35.8c0.1,0.1,0.1,0.2,0.2,0.3
				c8.4,16.5,5.4,36.2-6.5,49.4c-2.4,2.6-5.1,5-8.1,7c-0.8,0.5-1.6,1.1-2.4,1.5l-14.9,8.6c-5.3,3.1-11.1,4.9-16.9,5.5
				c-3.5,0.4-7.1,0.4-10.6-0.1c-0.6-0.1-1.1-0.2-1.6-0.2c-1.6-0.3-3.2-0.6-4.8-1.1c-0.5-0.1-0.9-0.3-1.4-0.4c0,0-0.1,0-0.1,0
				c-0.8-0.2-1.6-0.5-2.4-0.9c-9.1-3.4-17.1-9.9-22.3-18.9l-22.4-38.7c-2.4-4.2-4.8-8.4-7.2-12.6l-27.5-47.7
				c-4.1-7.1-8.2-14.2-12.3-21.3l-13-22.5c-0.3-0.5-0.5-0.9-0.8-1.4c-0.2-0.4-0.5-0.8-0.7-1.3c-0.1-0.3-0.3-0.6-0.5-0.9l0,0
				c-1.8-3.3-3.4-6.8-4.7-10.3c-2-5.2-3.1-10.1-3.3-14.9c-0.1-8.2,2.2-16.3,6.4-23.2c0.1-0.1,0.2-0.3,0.3-0.4
				c3.7-5.9,8.8-11,15.2-14.7l14.9-8.6c5.2-3,10.8-4.8,16.5-5.5c0,0,0.1,0,0.1,0c1.6-0.2,3.2-0.3,4.8-0.3c2.1,0,4.2,0.1,6.3,0.4
				c1,0.1,2.1,0.3,3.1,0.5c0,0,0.1,0,0.1,0c0.7,0.2,1.5,0.3,2.2,0.5c0.5,0.1,1.1,0.3,1.6,0.5c2.1,0.7,4.3,1.5,6.3,2.5
				c1.5,0.7,3,1.6,4.5,2.5l0,0c5.7,3.7,10.7,8.7,14.3,15l29.6,51.4c0.9,1.5,1.6,3,2.3,4.6c-0.3,0.1-0.5,0.3-0.8,0.4c0,0,0,0,0,0
				l-0.6,0.3c-0.5,0.3-0.9,0.5-1.4,0.8c-0.5,0.3-1,0.6-1.4,0.9l-0.2,0.1c-0.2,0.1-0.4,0.3-0.6,0.4c-0.6,0.4-1.2,0.8-1.7,1.1
				c-3.7,2.4-7,5-9.9,7.6c0,0,0,0,0,0c-4.8,4.4-8.4,9.1-10.8,14c-1.2,2.4-2.2,4.9-2.7,7.4c-0.1,0.4-0.2,0.7-0.2,1
				c-0.1,0.4-0.2,0.8-0.3,1.3l0,0c0,0.1-0.1,0.2-0.1,0.3l-22.2-38.5c0,0-2.7-4.7-5.2-9.1l-7.9-13.8c-0.1-0.2-0.2-0.4-0.4-0.6
				c-0.7-1.2-1.6-2-2.5-2.6c-0.5-0.3-0.9-0.5-1.4-0.7c-0.2-0.1-0.4-0.1-0.6-0.2c-1.5-0.3-3.2,0-5,0.9c0.1-0.1,0.1-0.1,0.2-0.1
				l-0.6,0.4l0,0l0,0c0,0,0,0-0.1,0l-0.7,0.4c-3.9,2.4-3.6,6.3-1.5,9.9l42.4,73.4c11.4,19.7,22.8,39.5,34.2,59.2
				c1.3,2.3,3.2,4.7,5.9,5.2c0.7,0.1,1.4,0.1,2.1,0c0.4-0.1,0.8-0.2,1.2-0.4l0,0l1.4-0.8c0.3-0.1,0.5-0.3,0.8-0.4
				c0.2-0.1,0.4-0.2,0.5-0.4c0.4-0.3,0.7-0.6,1-0.9c0,0,0,0,0,0c1-1.1,1.6-2.5,1.8-4c0-0.4,0-0.9-0.1-1.3c-0.2-1.1-0.7-2.2-1.4-3.4
				l-16.2-28c-0.3-0.5-0.6-1-0.9-1.5l-0.3-0.6c-0.9-1.6-1.9-3.2-2.9-4.7c0,0,0,0,0,0c-0.2-0.5-0.5-1-0.7-1.5
				c-0.1-0.2-0.2-0.4-0.3-0.6c-0.9-1.9-1.6-3.8-2.3-5.8c-0.8-2.4-1.6-4.9-2.1-7.5c0,0,0,0,0-0.1c-0.3-1.5-0.5-3.1-0.7-4.7
				c-0.2-2.1-0.3-4.2-0.2-6.4c0.1-1.7,0.3-3.3,0.6-4.9c1-4.3,2.9-8.5,5.4-12.4c0.1-0.2,0.2-0.3,0.3-0.5c3.7-6.4,9-12,15.9-16
				l2.2-1.3c3.7-2.3,7.5-4.4,11.3-6.5c0,0,3.8-2,4.1-2.1c4.5-2.2,9.2-3.6,13.9-4.2c0,0,0.1,0,0.1,0C254.7-446.9,256.4-447,258.1-447
				z"/>
		</g>
	</g>
</g>
</svg>
