<?xml version="1.0" encoding="utf-8"?>
<!-- Generator: Adobe Illustrator 24.0.2, SVG Export Plug-In . SVG Version: 6.00 Build 0)  -->
<svg version="1.1" id="Capa_1" xmlns="http://www.w3.org/2000/svg" xmlns:xlink="http://www.w3.org/1999/xlink" x="0px" y="0px"
	 viewBox="0 0 512 512" style="enable-background:new 0 0 512 512;" xml:space="preserve">
<style type="text/css">
	.st0{fill:#FFFFFF;}
	.st1{fill:#E95153;}
	.st2{fill:#435573;}
	.st3{fill:#5695CF;}
	.st4{fill:#37424F;}
	.st5{fill:#104954;}
	.st6{fill:#5EBEBB;}
	.st7{fill:#F0AD05;}
	.st8{fill:#49484A;}
	.st9{fill:#F9B50F;}
	.st10{fill:#175168;}
	.st11{fill:#F08313;}
</style>
<g>
	<path class="st0" d="M1228.3,170.3c25.7,0,51.4,0,77.1,0c49.6,0.1,89.2,32.4,98.7,81.1c1.2,5.9,1.4,12.1,1.4,18.2
		c0.1,52.2,0.1,104.4,0,156.6c-0.1,49.1-32.9,88.9-81.2,98.1c-5.9,1.1-12.1,1.4-18.2,1.4c-52.2,0.1-104.3,0.1-156.5,0
		c-49-0.1-89.1-33.3-97.9-81.3c-1.1-6.1-1.3-12.5-1.4-18.8c-0.1-51.6-0.1-103.3-0.1-154.9c0-49.8,32-89,80.9-98.8
		c6.1-1.2,12.5-1.4,18.8-1.5C1176.1,170.2,1202.2,170.3,1228.3,170.3z M1374.1,348c0-25.2,0.3-50.3-0.2-75.5
		c-0.2-8.6-1.1-17.5-3.8-25.6c-9.5-28.5-33.9-45-65.4-45.1c-51.2-0.2-102.5-0.2-153.7,0.1c-8,0.1-16.4,1.2-23.9,3.7
		c-28.8,9.7-45.2,34.2-45.3,66.5c-0.1,50.5-0.1,101,0.1,151.5c0,5.9,0.3,11.9,1.6,17.6c7.5,32.7,33.2,52.7,68,52.8
		c51,0.2,102.1,0.1,153.1,0c12.9,0,25.4-2.4,36.5-9.3c22.6-14,33-34.5,32.9-60.8C1374.1,398.7,1374.1,373.4,1374.1,348z"/>
	<path class="st0" d="M1227.7,256.4c50.3-0.4,91.6,40.8,91.8,91.4c0.2,50.4-41.1,91.7-91.5,91.7c-50.3,0-91-40.5-91.5-91.1
		C1135.9,298.2,1177,256.8,1227.7,256.4z M1228.5,288c-33.2-0.1-60.4,26.6-60.5,59.5c-0.1,33.2,26.6,60.4,59.4,60.5
		c33.2,0.1,60.4-26.7,60.5-59.5C1288,315.3,1261.3,288.1,1228.5,288z"/>
	<path class="st0" d="M1323.1,275.9c-12.5-0.1-22.9-10.5-22.9-23c0-12.8,10.5-23.1,23.4-23c12.7,0.1,23,10.4,23,22.9
		C1346.6,265.5,1335.9,276,1323.1,275.9z"/>
</g>
<g>
	<path class="st0" d="M1366.8-365.8c0-44.7,0-88.5,0-133c12,0,23.9,0,36.3,0c2.7-17.5,5.4-34.5,8.1-52.2c-18.5,0-36.1,0-54.7,0
		c0-10.7-0.1-20.8,0-30.9c0-4.2-0.2-8.5,0.8-12.5c3.3-12.7,12.1-19,26.6-19.5c5.8-0.2,11.6-0.1,17.3-0.1c5.6,0,11.1,0,17.2,0
		c0-15.2,0-30.2,0-45.9c-7-0.9-14-2.1-21.1-2.5c-15.9-1-31.8-2.1-47.4,2.8c-26.4,8.3-41.2,26.6-44.4,53.5c-1.9,15.5-1,31.4-1.4,47.1
		c-0.1,2.3,0,4.7,0,7.8c-14.2,0-27.8,0-41.6,0c0,17.6,0,34.5,0,51.9c13.7,0,27.2,0,41.1,0c0,44.6,0,88.7,0,132.8
		c-76.5-8.6-157.4-77.5-157.7-183.9c-0.3-104.7,86.7-190.7,194.5-185.5c99.9,4.8,183.1,91.1,175.1,200.2
		c-3.8,52.1-26.3,95.4-66,129.3C1425.6-386,1398.3-372.2,1366.8-365.8z"/>
</g>
<g>
	<path class="st0" d="M1409.8-49.7c-60.5-49.7-56.6-131.4-10.6-176.4c46.3-45.3,121.4-44.5,166.4,2.2c44.7,46.5,45.7,126.4-12,173.4
		c11.9,7.7,24.6,14.4,35.7,23.3c44.1,35.5,67.1,81.7,67,138.6c0,32.6-25.4,57.6-58.9,57.8c-77.4,0.4-154.8,0.4-232.2,0
		c-37.2-0.2-62.2-30.8-59.1-68c3.2-38.6,16-72.8,40.5-102.6c15.5-18.8,34.4-33.6,56.2-44.6C1404.8-47.1,1406.9-48.2,1409.8-49.7z
		 M1481.2,130.1c38.2,0,76.4,0,114.7,0c13.4,0,21.9-8.2,21.7-21.1c-0.1-6.3-0.5-12.7-1.5-18.9c-12.5-74.7-79.2-124.2-154.1-114.5
		c-64.4,8.4-115.9,66.1-117,131.2c-0.3,15.5,7.4,23.2,23.1,23.3C1405.8,130.1,1443.5,130.1,1481.2,130.1z M1403.4-142.9
		c-0.2,42.8,35.1,78.5,77.7,78.3c42.9-0.1,78.2-35.3,78.2-78c-0.1-42.5-35-77.6-77.4-77.8C1438.8-220.6,1403.6-185.8,1403.4-142.9z"
		/>
</g>
<g>
	<g>
		<path class="st0" d="M597.2-419.7c103.3,0,206.2,0,309.5,0c0.1,1.8,0.3,3.4,0.3,5c0,35,0.1,70,0,105
			c-0.1,23.1-14.8,42.1-37.2,47.8c-4.6,1.2-9.5,1.7-14.3,1.7c-69,0.1-138,0.1-206.9,0.1c-24.6,0-43-13.5-49.7-36.2
			c-1.1-3.6-1.7-7.5-1.7-11.3c-0.1-36.3-0.1-72.6-0.1-109C597-417.5,597.1-418.3,597.2-419.7z M805.4-353.3
			c-16.8-0.1-30.4,13.2-30.5,29.8c-0.1,16.6,13.4,30.5,29.9,30.6c16.9,0.2,30.7-13.3,30.7-30.2C835.6-339.9,822.3-353.2,805.4-353.3
			z M826.9-351.6c8.8,7.4,13.9,16.6,14,28.1c0.1,11.7-5.1,21-13.9,28.7c11.8,4.5,25.1-0.1,33-10.8c8-10.8,7.6-25.9-0.9-36.6
			C851.5-351.8,837.4-356.1,826.9-351.6z"/>
		<path class="st0" d="M597.7-451.3c2-14.1,8.8-24.9,19.8-33.1c8.7-6.5,18.7-9.3,29.5-9.3c70-0.1,140-0.1,209.9,0
			c23.7,0,42,14.4,48.3,37.3c0.4,1.6,0.6,3.2,0.9,5.2C803.4-451.3,701-451.3,597.7-451.3z"/>
	</g>
</g>
<g>
	<path class="st0" d="M-519.9-604c20.9,0.4,40.8,4.5,59,15.4c9.7,5.8,17.9,13.1,23.2,23.3c8.9,17.2,5,40.4-8.9,55.1
		c-12.1,12.8-27.4,19.8-44.3,23.2c-23.6,4.8-47.2,4.2-70.2-3.7c-15-5.2-28-13.3-36.9-26.9c-12.2-18.7-12.3-46.2,10.3-64.3
		c14.1-11.3,30.3-17.4,47.9-20.1C-533.2-603.1-526.5-603.4-519.9-604z M-436.5-549.3c-0.5-0.2-0.7-0.3-0.9-0.3
		c-10.6,3.2-21.2,6.5-31.7,9.8c-0.5,0.2-1.2,1.4-1.1,2.1c0.7,7.2-1.2,9.6-8.7,10.9c-0.7,0.1-1.6,0.9-1.8,1.6c-1.3,4.6-4.6,6.5-9,7.1
		c-1,0.1-2.2,0.9-2.8,1.8c-2.3,3.2-5.1,4.9-9.1,4.7c-0.7,0-1.7,0.1-2.2,0.6c-3.9,3.4-8.2,2.8-12.5,1.1c-1.7-0.6-2.9-0.7-4.5,0.3
		c-4.7,2.9-9.7,1.7-13.2-2.5c-0.7-0.9-2.1-1.6-3.2-1.7c-3.2-0.1-5.7-1.3-7.9-3.6c-0.8-0.8-2.1-1.5-3.3-1.6c-3.9-0.5-6.6-2.5-8.5-5.9
		c-0.5-0.9-1.6-1.7-2.6-1.9c-5.2-0.8-8.4-4.5-7.7-9.6c0.3-2-0.3-3-1.9-3.6c-6.5-2.5-13-5.1-19.6-7.3c-4.4-1.5-9-2.3-13.7-3.4
		c-0.9,8.9,1.3,16.5,5.7,23.4c5.4,8.4,12.7,14.9,21.4,19.5c33.6,17.6,68.1,18.3,103,4.2c13.7-5.5,25.3-14.2,32.2-27.8
		C-437.3-537.1-436-543-436.5-549.3z M-513.5-522.6c0.3-0.3,0.6-0.6,0.9-0.8c0.7,0.4,1.4,0.7,2,1.2c2.2,2,4.4,4.1,6.5,6.1
		c2.3,2.2,5.5,2.1,7.7-0.2c2.3-2.3,0.8-4.1-0.8-5.8c-2-2.2-4-4.4-6-6.7c-0.6-0.7-1-1.7-1.5-2.6c0.2-0.2,0.5-0.4,0.7-0.6
		c0.9,0.6,1.8,1.1,2.6,1.8c2.5,2.3,4.9,4.7,7.3,7.1c2.6,2.5,6.5,2.4,9.1-0.2c2.2-2.2,2-4.5-0.9-7.5c-3-3.1-6.1-6.1-9.1-9.2
		c-0.7-0.7-1.1-1.6-1.6-2.5c0.2-0.2,0.5-0.4,0.7-0.7c0.9,0.6,1.8,1.1,2.6,1.8c3.7,3.3,7.3,6.6,11,9.8c2.5,2.2,6.1,1.9,8.3-0.5
		c1.8-2,1.5-4.9-1-7.1c-11.1-9.5-22.1-19-33.3-28.3c-3.9-3.2-8.3-4-12.8-1.1c-4.1,2.7-8.1,5.6-12.1,8.4c-4.4,3-9.1,2.9-13.8,0.7
		c-3.7-1.7-4.1-4.2-1.4-7.2c2.5-2.7,4.9-5.4,7.4-8.1c-1.7-0.1-3,0.1-4.2,0.6c-5.3,1.8-10.7,2-16.1,0.5c-6.8-1.9-13.6-3.8-20.3-6.2
		c-2.2-0.8-3.7-0.5-5.1,1.1c-3.7,4.4-7.7,8.6-10.9,13.3c-2.2,3.2-3.2,7.1-4.8,10.9c2.2,0.7,3.7,1.2,5.2,1.6
		c10.8,2.5,21.5,5.3,31.2,10.9c0.6,0.3,1.6,0.4,2.2,0c4.2-2.7,8-1.9,11.5,1.4c5-2.5,9.5-2.3,13.3,2.2c0.3,0.4,1,0.6,1.6,0.6
		c8.1,0.1,10.3,1.9,11.6,9.8c8.3,2,10.7,5.7,9.2,14.2c4.2,2.6,7.9,2.6,10.8,0C-508.5-516.7-511-519.6-513.5-522.6z M-547.3-563.2
		c3.1,3,7.7,3.5,11.7,0.9c3.4-2.1,6.4-4.8,9.6-7.1c8.1-5.6,13-5.6,20.5,0.6c10.3,8.5,20.4,17.2,30.5,25.9c1.3,1.2,2.3,1.1,3.8,0.6
		c8.1-2.9,16.2-5.8,24.3-8.5c3.2-1.1,6.5-1.8,9.9-2.7c-2-10-7.3-17.7-14.5-24.3c-1.5-1.3-2.5-1.5-4.3-0.7c-6.4,3-13.2,4.4-20.2,4.7
		c-8,0.3-15.6-1.6-22.9-4.9c-10-4.5-20.3-6.2-30.5-1.1C-536.8-576-541.6-569.1-547.3-563.2z M-581.4-582.3c7.3,2,14,3.7,20.6,5.6
		c5.3,1.5,10.5,0.8,15.8-0.6c5.3-1.4,10.4-3.1,15.4-5.6c10.7-5.4,21.6-3.5,32.1,1.3c9.8,4.4,19.8,6,30.3,3.6c3.6-0.8,7-2.1,11.1-3.3
		C-488.4-606.5-549.9-606.3-581.4-582.3z M-543.9-523.5c0.2,5.8,5.5,8.7,10.5,4.9c2.4,6.3,4.6,8.2,8.7,7.3c3.4-0.7,6-3.8,5.5-7.1
		c-0.3-1.6-1-3.9-2.2-4.5c-2.5-1.3-5.5-1.6-8.5-2.4c0.7-2.6,1.7-6.2-1.7-8.6c-2.8-2-5.8-1.5-8.7,0.9c-0.4-3.5-2.1-6.1-5.3-6
		c-2.7,0.1-5.3,1.6-8.1,2.5c-1.6-3.6-4.3-5.1-7.5-3.7c-2.6,1.2-4,4.4-2.8,7c1.5,3.4,4.3,4,9.1,2
		C-554.7-522.7-549.1-520.6-543.9-523.5z"/>
	<path class="st0" d="M-329.7-496.1c3.2,0,6.1,0,9.1,0c0.4,0,1,0.3,1.3,0.6c2.6,2.7,5.6,4.1,9.1,2.3c3.8-1.9,5.1-5.4,5-9.5
		c0-0.3-0.1-0.6-0.3-1.4c-3,3.5-6.7,5-11,4.5c-7-0.7-12.5-6-13.9-14c-1-5.9-0.9-12,2.3-17.3c1.3-2.1,3.1-4.3,5.2-5.4
		c8.2-4.4,21.6-2.8,25.6,6.8c1,2.5,1.6,5.3,1.7,8c0.2,6.6,0.2,13.1,0,19.7c-0.2,6.6-2.4,12.4-8.6,15.6c-6.4,3.3-12.9,2.6-19.1-0.9
		C-326.7-488.9-328.6-492-329.7-496.1z M-304.7-519c-0.7-2.5-1.3-5.2-2.3-7.6c-1.2-2.8-3.8-4-6.8-3.8c-2.9,0.2-5,1.6-6.1,4.4
		c-1.7,4.1-1.9,8.3-0.9,12.6c0.9,3.9,2.6,5.5,6.4,5.9c3.8,0.4,6.5-0.8,7.9-4.3C-305.6-514-305.4-516.3-304.7-519z"/>
	<path class="st0" d="M-379.4-587.1c3.7-3.5,7.8-5.5,12.7-4.8c8.9,1.2,13.6,6.6,13.8,15.5c0.1,7.2,0,14.4,0,21.6
		c0,0.3-0.1,0.6-0.2,1.1c-2.7,0-5.4,0-8.5,0c0-7.4,0-14.8,0-22.1c0-4.2-2.3-6.9-6-7.2c-4.2-0.4-7.5,2.6-7.6,7
		c-0.1,6.3,0,12.5,0,18.8c0,1.1,0,2.2,0,3.5c-2.9,0-5.6,0-8.7,0c0-3.9,0-7.8,0-11.7c0-3.7,0.1-7.4,0-11.1c-0.1-4-2.9-6.6-6.6-6.6
		c-3.9,0-6.8,2.8-6.8,6.8c-0.1,6.4,0,12.7,0,19.1c0,1.1,0,2.2,0,3.5c-3,0-5.7,0-8.4,0c0-8.9-0.9-17.8,0.2-26.4
		c1.5-11,15.2-15.6,24.1-8.8C-380.8-588.4-380.2-587.8-379.4-587.1z"/>
	<path class="st0" d="M-182.6-586.7c0-3.3,0-5.9,0-8.6c0-6.3,3-8.9,9.7-8c0,1.6,0,3.2,0,4.8c0,9.8,0,19.7,0,29.5
		c0,9.3-6.1,15.7-15.4,16.1c-2.3,0.1-4.7-0.1-7-0.4c-7.1-0.9-11.2-5.2-12.8-11.9c-1.6-6.8-1.1-13.5,2.5-19.6
		C-200.6-593.1-189.9-594.3-182.6-586.7z M-199.4-572c0.7,2.5,1.1,4.8,1.9,7c1.1,2.9,3.3,4.3,6.4,4.4c3.2,0.2,5.7-1,7.2-3.8
		c2.7-5.1,2.5-10.3-0.1-15.3c-1.5-2.8-4.1-4-7.2-3.9c-2.9,0.1-5.2,1.5-6.2,4.3C-198.3-576.9-198.8-574.4-199.4-572z"/>
	<path class="st0" d="M-396.6-504.6c0,4,0,7.3,0,10.5c0,5.4-1.3,6.7-6.7,6.7c-0.8,0-1.6,0-2.3,0c-0.2-0.3-0.5-0.5-0.5-0.7
		c0-12.1-0.1-24.2,0.2-36.3c0.1-6.2,4.5-11.6,10.6-12.8c4-0.8,8.4-1.2,12.5-0.6c6.6,1,10.1,5.9,11.8,12c1.7,6.2,1.1,12.3-1.6,18.3
		C-377-498-390-496.4-396.6-504.6z M-379.3-518.8c-0.9-2.8-1.5-5.7-2.9-8.2c-2.5-4.3-9.5-4.3-12.3-0.2c-2.9,4.2-2.9,12.2-0.1,16.4
		c3.1,4.6,10.2,4.5,12.8-0.5C-380.7-513.4-380.2-516-379.3-518.8z"/>
	<path class="st0" d="M-312.2-569.6c-9.2,0-18,0-26.7,0c0.2,7.3,7.1,11.7,13.3,8.1c3.3-2,6.5-1.8,9.9-1.9c0.8,0,1.6,0,2.5,0
		c-0.8,4.8-5.9,9.6-12,10.4c-3.7,0.5-7.7,0.3-11.3-0.6c-7.4-1.8-11.7-7.7-12.1-15.3c-0.1-2.4-0.2-4.8,0.1-7.1
		c0.9-6.9,4.2-12.3,11-14.6c6.9-2.3,13.9-2,19.7,3.1C-312.5-582.9-311.7-576.6-312.2-569.6z M-322.1-576.2c-0.4-5-3.5-7.9-8.3-7.9
		c-4.6,0-7.8,3.1-8.1,7.9C-333.1-576.2-327.7-576.2-322.1-576.2z"/>
	<path class="st0" d="M-272.7-538.6c11.4,0,18.9,7.9,18.8,19.8c-0.1,12.2-7.4,19.7-19.2,19.7c-11.5,0-18.8-7.7-18.8-19.7
		C-291.8-531-284.3-538.6-272.7-538.6z M-263.6-518.5c-0.1,0-0.3-0.1-0.4-0.1c0-0.9,0.1-1.9,0-2.8c-0.4-5.2-3.7-8.9-8.2-9.2
		c-4.6-0.4-8,2.6-9.3,8c-0.8,3.7-0.5,7.3,1.1,10.8c1.5,3.2,4.2,4.7,7.7,4.7c3.5,0,6.2-1.6,7.5-4.9
		C-264.5-514.1-264.1-516.4-263.6-518.5z"/>
	<path class="st0" d="M-150.9-552.7c-11.7-0.1-18.8-7.6-18.7-20c0.1-11.9,7.8-19.6,19.5-19.5c11.2,0.1,18.6,8.3,18.4,20.2
		C-132-560-139.3-552.6-150.9-552.7z M-141.5-572.1c-0.4-2.2-0.5-4.2-1.1-6c-1.3-4-4.5-6.2-8.3-6.1c-3.9,0.1-7,2.7-8.2,6.7
		c-1.1,4-1,7.9,0.6,11.7c1.5,3.3,4.1,5,7.8,5c3.6,0,6.4-1.7,7.7-5.1C-142.3-567.9-142-570.1-141.5-572.1z"/>
	<path class="st0" d="M-366.2-525.5c0.8-7.7,5-12.2,12.2-12.4c4.3-0.1,8.8,0.5,13,1.5c3.7,0.8,6,3.6,6.1,7.6
		c0.1,5.8,0.2,11.7,0,17.5c-0.2,5.6-3.5,9.5-8.6,10.7c-4.9,1.2-10.1,1.5-15.2,1.2c-5-0.3-8.3-4.5-8.9-9.6c-0.5-5.1,1.9-9.7,6.5-11.4
		c2.9-1.1,6.1-1.5,9.2-2.1c1.9-0.4,3.9-0.6,5.6-1.3c0.9-0.4,1.9-1.9,1.8-2.8c-0.1-1.1-0.9-2.6-1.9-3.1c-3.8-2.2-8.2-0.8-10.5,3
		c-0.4,0.6-1.2,1.2-1.8,1.3C-361-525.4-363.6-525.5-366.2-525.5z M-344.5-517.8c-3.2,0.7-6.4,1.2-9.5,2.1c-3,0.8-4.4,3.3-3.8,6.2
		c0.5,2.4,3,3.9,6,3.5C-345.9-506.7-343.4-510.8-344.5-517.8z"/>
	<path class="st0" d="M-243.6-579.3c0.7-7.1,3.7-10.7,9.9-12.1c5.1-1.2,10.2-0.9,15.1,1c4.1,1.5,6.3,4.4,6.3,8.8c0,5.3,0,10.7,0,16
		c-0.1,4.9-2.5,8.5-6.8,10.5c-5.8,2.7-11.9,3-18.1,1.6c-4.7-1-7.5-4.7-7.8-9.1c-0.4-5.4,1.8-9.7,6.3-11.5c2.8-1.1,5.9-1.5,8.9-2.1
		c2-0.4,4.1-0.5,6-1.3c1-0.4,2-2,2-3c0-1-1-2.5-2-3c-3.9-2.1-8.1-0.7-10.5,3.1c-0.4,0.6-1.2,1.1-1.8,1.1
		C-238.5-579.2-240.9-579.3-243.6-579.3z M-221.8-571.6c-3.3,0.7-6.4,1.3-9.4,2.2c-3.3,0.9-4.8,3.5-3.9,6.5c0.7,2.5,3.3,3.7,6.5,3
		C-223-561-221-564.4-221.8-571.6z"/>
	<path class="st0" d="M-248.1-577.9c-3.5,0-6.7,0-10.1,0c-1.1-3.8-3.3-6.3-7.9-5.9c-3,0.3-5.1,1.6-6.2,4.4
		c-1.9,4.7-1.8,9.5-0.2,14.2c1,3,3.5,4.5,6.9,4.6c3.3,0.1,5.6-1.2,6.5-4.4c0.5-1.7,1.4-2.2,3.1-2.1c2.4,0.1,4.9,0,7.3,0
		c0.8,5.4-5.4,13.3-13.3,14.3c-2.7,0.4-5.6,0.3-8.3-0.1c-5.7-0.8-9.7-4.1-12.1-9.4c-4-9-1.6-20.9,5.4-26.2
		c5.9-4.4,17.6-4.5,23.6-0.1C-249.9-586-248.6-582.3-248.1-577.9z"/>
	<path class="st0" d="M-285.9-591.5c0,3.1,0,6.1,0,9c-11.8,0.4-11.7,4.9-11.7,13.1c0,5.1,0,10.2,0,15.6c-3.2,0-6.2,0-9.9,0
		c0.3-8.4-0.1-17,1.3-25.3C-304.8-587.8-295.8-592.8-285.9-591.5z"/>
</g>
<g>
	<path class="st0" d="M138.6-182.4c-11,0-21.2,0-31.9,0c-1.5-6.4-2.9-12.9-4.5-20c-14.3,0-28.5-0.1-42.7,0.1c-1.2,0-2.4,1.5-3.4,2.5
		c-0.5,0.5-0.6,1.4-0.9,2.2c-2.1,5.1-2.8,12.1-6.5,14.7c-3.8,2.6-10.7,0.8-16.2,0.9c-6.1,0.1-12.2,0-19.3,0
		c4.6-11.1,9-21.4,13.3-31.7c12.7-30.4,25.6-60.8,38.1-91.3c3.6-8.9,9.5-13,19.1-12.7c8.9,0.3,17.7,0.1,26.9,0.1
		C119.8-272.5,129.1-227.7,138.6-182.4z M67-230.3c10.4,0,19.7,0,29.5,0c-3.5-16.9-6.9-33.2-10.4-49.5c-0.4,0-0.8,0-1.2,0
		C79-263.4,73.1-247.1,67-230.3z"/>
	<path class="st0" d="M-296.5-316.5c1.8-0.4,3.7-1.2,5.5-1.2c17.8-0.1,35.6-0.1,53.4,0c10.3,0,15.9,4.8,17.9,15.3
		c4.1,21.5,8,43.1,12.1,64.6c0.7,3.7,1.5,7.3,2.7,12.7c3.1-7.8,5.7-13.8,8.1-20c8.9-22.6,17.9-45.2,26.6-67.8
		c1.4-3.7,3.4-5.1,7.4-4.9c10.1,0.3,20.1,0.1,31.1,0.1c-4.5,10.7-8.7,20.7-12.8,30.6c-13.9,33.3-28,66.7-41.7,100.1
		c-1.7,4.1-3.9,5.1-8,5c-8.3-0.2-16.6-0.4-24.9,0.1c-5,0.3-6.9-1.6-8-6.2c-8.3-32.9-17.1-65.7-25.1-98.7
		c-2.4-9.9-7.3-16.3-16.9-19.2c-7.3-2.3-14.7-4.7-22-7c-1.8-0.6-3.5-1.1-5.3-1.6C-296.6-315.3-296.5-315.9-296.5-316.5z"/>
	<path class="st0" d="M-79.8-214.4c11.3,2.2,21.7,5,32.3,6.1c5.8,0.6,12.4-0.6,17.8-2.9c9.4-3.9,10.1-13.5,2-19.7
		c-3.3-2.5-7-4.4-10.6-6.5c-4.5-2.6-9.1-4.8-13.5-7.5c-30.7-18.9-21-52.3,0.4-65c23-13.7,47-12.4,72.1-4.6c-2,9.6-4,18.8-5.6,26.4
		c-11.7-1.3-22.5-2.6-33.4-3.8c-1.5-0.2-3.2,0.1-4.7,0.6c-5.5,1.5-10.9,3.7-11.9,10.1c-0.9,5.8,3.6,8.9,7.9,11.4
		c6.6,4,13.5,7.4,20.1,11.3c13.5,8,22.5,18.9,21,35.6c-1.4,16.4-10,28.3-24.6,35.3c-23.4,11.2-47.6,9.4-71.6,1.9
		c-1.4-0.4-3-3.6-2.8-5.2C-83.4-199-81.4-207.1-79.8-214.4z"/>
	<path class="st0" d="M-116.2-317.4c11.8,0,23,0,34.7,0c-3,14.3-5.9,28.2-8.8,42.1c-6.2,29.1-12.6,58.3-18.6,87.4
		c-0.9,4.6-2.7,6.1-7.3,5.9c-9.2-0.4-18.5-0.1-28.8-0.1C-135.3-227.7-125.8-272.5-116.2-317.4z"/>
</g>
<g>
	<g>
		<path class="st0" d="M1025.2-286c0.6-12.5,0.4-24.8,1.8-36.9c3.8-32.5,32-60.5,64.3-64.6c42.1-5.3,76.3,17.6,87.1,58.7
			c1.6,5.9,1.9,12.3,2.1,18.4c0.4,8.1,0.1,16.2,0.1,25c12.4,0,24.1,0,35.9,0c10.5,0,14.9,3.9,15.8,14.3c2.6,28.6,5.1,57.3,7.7,85.9
			c3.3,35,6.7,70.1,10,105.1c1.5,16.7,3.5,33.3,4.1,50c1.1,31-21.7,54.1-52.7,54.1c-65.1,0.1-130.3,0-195.4,0
			c-34.3,0-57.6-26.9-53.6-61c2.6-21.9,4.2-44,6.3-66c2.5-26.7,5.1-53.4,7.5-80.1c1.9-20.5,3.6-41.1,5.4-61.6
			c0.8-9.6,1.7-19.2,2.7-28.8c0.8-7.7,5.9-11.9,14.1-12c12-0.1,24.1-0.1,36.1-0.2C1024.6-285.6,1024.8-285.7,1025.2-286z
			 M998.9-259.4c-1.6,17.6-3,34.7-4.6,51.8c-3.2,35.3-6.6,70.5-9.8,105.8c-2.1,22.4-3.9,44.9-6.3,67.3c-2.2,20,8.8,32.9,28.9,32.9
			c64.1,0,128.1,0,192.2,0c19.9,0,30.9-12.5,28.9-32.2c-2.6-26-5.2-52.1-7.5-78.2c-3.7-40.6-7.2-81.2-10.8-121.8
			c-0.8-8.5-1.7-16.9-2.6-25.3c-9.2,0-17.7,0-26.7,0c0,2.7,0,5,0,7.3c0,10.3,0.2,20.6-0.1,30.9c-0.2,7.7-6,13.1-13.2,12.9
			c-7-0.2-12.3-5.5-12.5-13c-0.2-6.7-0.1-13.3-0.1-20c0-6.1,0-12.3,0-18.3c-34.9,0-68.8,0-103.2,0c0,2.7,0,5,0,7.3
			c0,10.3,0.2,20.6-0.1,30.9c-0.2,7.7-5.9,13.1-13.1,13c-7-0.2-12.3-5.5-12.6-12.9c-0.2-6.2-0.1-12.5-0.1-18.7c0-6.6,0-13.1,0-19.8
			C1016.4-259.4,1008.1-259.4,998.9-259.4z M1051.6-285.9c34.8,0,68.8,0,103.1,0c0-9.7,0.4-18.9-0.1-28.1
			c-1.3-25-18.8-43.8-44.7-48.2c-21.9-3.8-45.6,9.9-54.4,31.4C1049.5-316.4,1052.1-301.2,1051.6-285.9z"/>
	</g>
</g>
<g>
	<path class="st0" d="M148.6,120.1c3.6,0,6.6,0,9.6,0c85.8,0,171.6,0,257.4,0c26.7,0,44.6,14.4,49,40.4c1.1,6.5,0,13.5-1.1,20.1
		c-6.2,37.9-12.7,75.7-19.3,113.5c-3.9,22.1-22.1,37.4-44.5,37.4c-68.9,0.1-137.9,0.1-206.8,0c-22.1,0-40.7-16-44.5-37.6
		c-11.5-65.4-23.1-130.9-34.6-196.3c-0.4-2.5-0.5-5-1-7.4c-2.7-11.9-7.1-15.3-19.5-15.3c-10.1,0-20.1,0.1-30.2,0
		c-9.6-0.1-16.2-6.6-16.1-15.2c0.1-8.5,6.4-14.9,15.6-14.9c14.3,0,28.8-0.8,42.9,1.1c19.5,2.6,33.2,17.9,36.5,37.1
		C144.1,95,146.3,107,148.6,120.1z M154.4,150.3c0,2.4-0.2,3.6,0,4.9c4,23,8.1,45.9,12.2,68.9c3.8,21.5,7.6,43,11.7,64.4
		c1.8,9,6.8,12.9,15.9,12.9c67.7,0.1,135.3,0.1,203,0c9.7,0,14.9-4.5,16.6-14c1.9-10.6,3.7-21.2,5.5-31.9
		c4.7-27.7,9.6-55.3,13.9-83.1c2.5-16.6-2.8-22-19.7-22c-83.5,0-167,0-250.5,0C160.4,150.3,157.7,150.3,154.4,150.3z"/>
	<path class="st0" d="M167.8,414.6c0-29.1,23.5-52.8,52.5-52.9c29.5-0.1,53.2,23.4,53.2,52.9c0,29.3-23.8,53-53.3,52.9
		C191.3,467.4,167.8,443.7,167.8,414.6z M220.4,437.3c12.2,0.2,22.7-10.1,22.9-22.3c0.1-12.3-10-22.7-22.3-22.9
		c-12.2-0.2-22.7,10.1-22.9,22.3C197.9,426.6,208.1,437,220.4,437.3z"/>
	<path class="st0" d="M371.5,467.5c-29.3-0.1-52.9-24-52.7-53.5c0.2-29,24-52.4,53.1-52.3c29.4,0.1,52.8,23.9,52.7,53.5
		C424.4,444.2,400.6,467.6,371.5,467.5z M372.4,392c-12.2-0.4-22.8,9.7-23.2,22c-0.4,12.2,9.6,22.8,22,23.2
		c12.2,0.4,22.9-9.7,23.2-22C394.7,403,384.6,392.4,372.4,392z"/>
</g>
<g>
	<g>
		<g>
			<g>
				<g>
					<g>
						<path class="st0" d="M286.6-562l31.9,55.3l-38.9,22.5l-33.7-58.4c-0.8-1.4-1.7-2.6-2.7-3.4c-0.8-0.8-1.7-1.3-2.6-1.7
							c-1.5-0.6-2.9-0.7-4.4-0.3c-0.6,0.2-1.1,0.4-1.7,0.7c-0.5,0.3-1,0.6-1.3,1c-1.2,1.1-1.9,2.4-2.1,4.1c-0.1,0.8-0.1,1.6,0.1,2.4
							c0.2,1.5,0.8,3.1,1.8,4.7l9.4,16.3c0,0,0,0,0,0c0.1,0.2,0.2,0.5,0.4,0.7l7,12.2l-0.2,0.1l16.9,29.3l-38.7,22.4l-53.5-92.6
							l38.8-22.4l4.9,8.5l0.1-0.1l2.8,4.9c0-5.5,1.2-10.7,3.6-15.5c1.1-2.3,2.7-4.5,4.5-6.4c1.9-2,4.1-3.7,6.7-5.3
							c0.2-0.2,0.5-0.3,0.7-0.5c0.5-0.3,0.9-0.5,1.4-0.7c0.6-0.3,1.2-0.6,1.8-0.9c2.1-1,4.3-1.7,6.4-2.1c5.7-1.2,11.4-0.5,17.1,2
							c1.1,0.5,2.1,1,3.1,1.6c0,0,0.1,0,0.1,0.1c2.5,1.4,5,3.2,7.3,5.2c0,0,0,0,0,0c4.6,4,8.8,9.4,12.6,15.9
							C286.3-562.4,286.5-562.2,286.6-562z"/>
					</g>
				</g>
				<g>
					<g>
						<path class="st0" d="M355.5-443.2c-6.3-10.6-16.5-17.5-27.7-20.1c-4.4-1-9.1-1.4-13.7-1c-6.2,0.5-12.4,2.4-18.1,5.7l-14.9,8.6
							c-2.9,1.7-5.5,3.6-7.8,5.8c-14.7,13.6-18.6,36.1-8.2,54.1c0,0,27.1,46.8,27.9,47.9l9.7,16.6l13.9,23.8l0.6,1l4.7,8.2l17.7,31
							c2.7,4.6,2.1,8.1-1.7,10.3c-0.8,0.4-1.5,0.7-2.2,0.9l-1,0.3c-0.4,0.1-0.7,0.2-1.1,0.2c-0.1,0-0.2,0-0.3,0
							c-2.6,0.2-4.7-1.1-6.4-4.1l-34-58.8c0,0.1,0,0.1,0,0.2c-0.8,3.6-2.1,7-4,10.3c-0.5,0.9-1.1,1.9-1.7,2.8
							c-0.2,0.3-0.4,0.6-0.7,0.9c-0.3,0.5-0.7,1-1,1.4c-0.4,0.5-0.8,1-1.2,1.5c-0.3,0.4-0.6,0.7-0.9,1c-3.5,4-7.9,7.7-13.2,11.2
							c-0.5,0.3-1,0.7-1.6,1c-0.9,0.5-1.7,1-2.5,1.5c-0.8,0.5-4,1.8-4.7,2.6l-45.7,26.4l0,0l-7.5,4.3c-3.6,2.1-7.4,2.3-11.4,0.9
							c-4.1-1.4-7.2-4.1-9.4-7.9l-68.4-118.5l-0.1,0.1l-0.4-0.8l-39,22.5l78.2,135.4c12.1,20.9,39,28.1,59.9,16l0.7-0.4
							c2.6-1,5.2-2.3,7.8-3.8l45.5-26.3c0,0,0,0,0,0l12.1-7l8.5,14.8c2.1,3.6,4.6,6.8,7.4,9.5c0,0,0.1,0.1,0.1,0.1
							c1,1.1,2,2.1,3.2,3c2.3,1.8,4.8,3.3,7.4,4.5c0,0,0.1,0,0.1,0.1c12.7,6.4,28.4,6.5,41.6-1.1l14.9-8.6c1.6-0.9,3.1-1.9,4.5-3
							c0,0,0,0,0.1,0c4.9-3.8,8.9-8.4,11.8-13.7c0.2-0.4,0.4-0.8,0.6-1.2c0.3-0.6,0.6-1.2,0.9-1.8c0.2-0.6,0.5-1.1,0.7-1.7
							c0.1-0.2,0.1-0.3,0.2-0.5c0.2-0.6,0.5-1.2,0.7-1.8c0-0.1,0.1-0.1,0.1-0.2c0.3-0.8,0.6-1.7,0.8-2.5c0.2-0.6,0.3-1.2,0.4-1.7
							c0.1-0.6,0.3-1.2,0.4-1.7c0.1-0.6,0.2-1.2,0.3-1.7c0.1-0.6,0.2-1.2,0.2-1.8c0-0.3,0-0.6,0.1-0.9c0-0.3,0-0.6,0.1-0.9
							c0.1-1.2,0.1-2.4,0.1-3.6c0-0.5,0-0.9,0-1.3c0-0.5,0-0.9-0.1-1.4c0-0.5-0.1-1-0.1-1.5c-0.1-0.6-0.1-1.2-0.2-1.8
							c-0.1-0.6-0.2-1.3-0.3-1.9c-0.1-0.7-0.3-1.3-0.4-1.9c0,0,0,0,0,0c-0.2-0.6-0.3-1.3-0.5-1.9c0,0,0,0,0,0
							c-0.2-0.6-0.4-1.3-0.6-1.9c-0.4-1.3-0.9-2.5-1.5-3.8c-0.3-0.6-0.5-1.2-0.8-1.7c0,0,0,0-0.1-0.1c-0.3-0.6-0.7-1.2-1-1.8
							l-29.7-51.4c-0.7-1.2-1.4-2.4-2.2-3.5l14.5-8.4c8.7-5,15.1-12.7,18.6-21.4c0,0,0,0,0-0.1c1.8-4,2.8-8.2,3.1-12.7
							c0.8-8.7-1-17.6-5.7-25.7l-25.7-44.4C355.8-442.8,355.6-443.1,355.5-443.2z M302.3-417c-2.4-4.2-1.8-7.5,1.7-9.9c0,0,0,0,0,0
							c3.9-1.9,7-0.7,9.4,3.5l31,53.6c0,0,0,0,0,0c0,0,0,0,0,0c1.9,3.8,1.2,6.9-2.1,9.1c0,0,0,0,0,0c-3.6,1.7-6.6,0.9-9-2.7
							c0,0,0,0,0,0L302.3-417z"/>
					</g>
				</g>
			</g>
		</g>
		<g>
			<path class="st0" d="M258.1-447c-0.8,0.9-1.6,1.8-2.3,2.7c-7,8.9-10.2,20.3-9.1,31.6c0.5,5.2,2,10.4,4.5,15.3
				c-2.3,1.4-4,3.8-3.5,6.6c0.3,1.8,1.2,3.4,2.1,4.9c7.2,11.7,13.8,23.9,20.7,35.8c0.1,0.1,0.1,0.2,0.2,0.3
				c8.4,16.5,5.4,36.2-6.5,49.4c-2.4,2.6-5.1,5-8.1,7c-0.8,0.5-1.6,1.1-2.4,1.5l-14.9,8.6c-5.3,3.1-11.1,4.9-16.9,5.5
				c-3.5,0.4-7.1,0.4-10.6-0.1c-0.6-0.1-1.1-0.2-1.6-0.2c-1.6-0.3-3.2-0.6-4.8-1.1c-0.5-0.1-0.9-0.3-1.4-0.4c0,0-0.1,0-0.1,0
				c-0.8-0.2-1.6-0.5-2.4-0.9c-9.1-3.4-17.1-9.9-22.3-18.9l-22.4-38.7c-2.4-4.2-4.8-8.4-7.2-12.6l-27.5-47.7
				c-4.1-7.1-8.2-14.2-12.3-21.3l-13-22.5c-0.3-0.5-0.5-0.9-0.8-1.4c-0.2-0.4-0.5-0.8-0.7-1.3c-0.1-0.3-0.3-0.6-0.5-0.9l0,0
				c-1.8-3.3-3.4-6.8-4.7-10.3c-2-5.2-3.1-10.1-3.3-14.9c-0.1-8.2,2.2-16.3,6.4-23.2c0.1-0.1,0.2-0.3,0.3-0.4
				c3.7-5.9,8.8-11,15.2-14.7l14.9-8.6c5.2-3,10.8-4.8,16.5-5.5c0,0,0.1,0,0.1,0c1.6-0.2,3.2-0.3,4.8-0.3c2.1,0,4.2,0.1,6.3,0.4
				c1,0.1,2.1,0.3,3.1,0.5c0,0,0.1,0,0.1,0c0.7,0.2,1.5,0.3,2.2,0.5c0.5,0.1,1.1,0.3,1.6,0.5c2.1,0.7,4.3,1.5,6.3,2.5
				c1.5,0.7,3,1.6,4.5,2.5l0,0c5.7,3.7,10.7,8.7,14.3,15l29.6,51.4c0.9,1.5,1.6,3,2.3,4.6c-0.3,0.1-0.5,0.3-0.8,0.4c0,0,0,0,0,0
				l-0.6,0.3c-0.5,0.3-0.9,0.5-1.4,0.8c-0.5,0.3-1,0.6-1.4,0.9l-0.2,0.1c-0.2,0.1-0.4,0.3-0.6,0.4c-0.6,0.4-1.2,0.8-1.7,1.1
				c-3.7,2.4-7,5-9.9,7.6c0,0,0,0,0,0c-4.8,4.4-8.4,9.1-10.8,14c-1.2,2.4-2.2,4.9-2.7,7.4c-0.1,0.4-0.2,0.7-0.2,1
				c-0.1,0.4-0.2,0.8-0.3,1.3l0,0c0,0.1-0.1,0.2-0.1,0.3l-22.2-38.5c0,0-2.7-4.7-5.2-9.1l-7.9-13.8c-0.1-0.2-0.2-0.4-0.4-0.6
				c-0.7-1.2-1.6-2-2.5-2.6c-0.5-0.3-0.9-0.5-1.4-0.7c-0.2-0.1-0.4-0.1-0.6-0.2c-1.5-0.3-3.2,0-5,0.9c0.1-0.1,0.1-0.1,0.2-0.1
				l-0.6,0.4l0,0l0,0c0,0,0,0-0.1,0l-0.7,0.4c-3.9,2.4-3.6,6.3-1.5,9.9l42.4,73.4c11.4,19.7,22.8,39.5,34.2,59.2
				c1.3,2.3,3.2,4.7,5.9,5.2c0.7,0.1,1.4,0.1,2.1,0c0.4-0.1,0.8-0.2,1.2-0.4l0,0l1.4-0.8c0.3-0.1,0.5-0.3,0.8-0.4
				c0.2-0.1,0.4-0.2,0.5-0.4c0.4-0.3,0.7-0.6,1-0.9c0,0,0,0,0,0c1-1.1,1.6-2.5,1.8-4c0-0.4,0-0.9-0.1-1.3c-0.2-1.1-0.7-2.2-1.4-3.4
				l-16.2-28c-0.3-0.5-0.6-1-0.9-1.5l-0.3-0.6c-0.9-1.6-1.9-3.2-2.9-4.7c0,0,0,0,0,0c-0.2-0.5-0.5-1-0.7-1.5
				c-0.1-0.2-0.2-0.4-0.3-0.6c-0.9-1.9-1.6-3.8-2.3-5.8c-0.8-2.4-1.6-4.9-2.1-7.5c0,0,0,0,0-0.1c-0.3-1.5-0.5-3.1-0.7-4.7
				c-0.2-2.1-0.3-4.2-0.2-6.4c0.1-1.7,0.3-3.3,0.6-4.9c1-4.3,2.9-8.5,5.4-12.4c0.1-0.2,0.2-0.3,0.3-0.5c3.7-6.4,9-12,15.9-16
				l2.2-1.3c3.7-2.3,7.5-4.4,11.3-6.5c0,0,3.8-2,4.1-2.1c4.5-2.2,9.2-3.6,13.9-4.2c0,0,0.1,0,0.1,0C254.7-446.9,256.4-447,258.1-447
				z"/>
		</g>
	</g>
</g>
<g>
	<g>
		<g>
			<g>
				<g>
					<path class="st1" d="M562.3-837c-1.2-2.9-3-5.4-5.2-7.6c-2.7-2.8-5.9-4.7-9.7-5.9l-30.2-0.1v75.9h17.5v-29.6l9.1-0.2
						c2.6-0.4,5-1.1,7.2-2.3c2.3-1.1,4.3-2.6,6-4.4c2.3-2.2,4-4.8,5.2-7.7c1.2-2.9,1.8-5.9,1.8-9.1
						C564.1-831.1,563.5-834.1,562.3-837z M540.4-821.8h-5.6V-834h5.6c0.8,0,1.6,0.2,2.4,0.5c0.8,0.3,1.4,0.8,2,1.3
						c0.6,0.5,1,1.2,1.3,1.9c0.3,0.7,0.5,1.5,0.5,2.4c0,0.9-0.2,1.6-0.5,2.4c-0.3,0.7-0.8,1.4-1.3,1.9c-0.6,0.5-1.2,1-2,1.3
						C542-822,541.2-821.8,540.4-821.8z"/>
				</g>
			</g>
			<g>
				<g>
					<path class="st1" d="M620.8-805c2.5-1.3,4.8-3.3,6.9-5.7c2.1-2.4,3.8-5.2,4.9-8.2c1.1-3,1.7-6.1,1.7-9.1c0-3.2-0.6-6.3-1.8-9.2
						c-1.2-2.9-2.9-5.4-5.2-7.7c-2.7-2.7-5.9-4.6-9.6-5.8l-34.2-0.1v76.1h17.8v-27.6l18.1,27.6h21.1L620.8-805z M601.4-834.3h8.9
						c0.9,0,1.7,0.1,2.5,0.5c0.8,0.3,1.4,0.8,2,1.3c0.6,0.6,1.1,1.3,1.4,2.1c0.3,0.8,0.5,1.6,0.5,2.5c0,1-0.2,2-0.6,3.1
						c-0.4,1-1,1.9-1.7,2.9c-0.2,0.3-0.7,0.8-1.8,1.6c-0.6,0.4-1.3,0.7-2.2,0.7h-8.9V-834.3z"/>
				</g>
			</g>
			<g>
				<g>
					<path class="st1" d="M733.5-827.7c-1.9-4.5-4.6-8.6-8.1-12.1c-3.6-3.6-7.6-6.3-12.1-8.1c-9.3-4-20.6-4-29.8,0
						c-4.5,1.9-8.6,4.6-12.1,8.1c-1.8,1.7-3.4,3.7-4.8,5.7c-1.3,2-2.5,4.2-3.4,6.4c-2.1,4.8-3.1,9.8-3.1,14.9
						c0,5.2,1.1,10.2,3.1,14.9c0.9,2.2,2.1,4.4,3.4,6.4c1.3,2,3,3.9,4.7,5.6c1.8,1.8,3.7,3.4,5.7,4.8c2,1.3,4.2,2.5,6.4,3.4
						c4.7,2,9.8,3.1,14.9,3.1c5.1,0,10.1-1,14.9-3.1c2.2-0.9,4.4-2.1,6.4-3.4c2-1.3,3.9-2.9,5.7-4.7c3.5-3.6,6.3-7.6,8.1-12.1
						c2-4.6,3-9.6,3-14.9C736.5-818.1,735.4-823.1,733.5-827.7z M719.7-812.8c0,2.9-0.6,5.7-1.7,8.4c-1.1,2.6-2.7,4.9-4.6,6.8
						c-2,2-4.2,3.5-6.8,4.6c-5.2,2.2-11.4,2.2-16.6,0c-2.7-1.1-5-2.7-6.9-4.6c-1.9-1.9-3.5-4.2-4.6-6.8c-1.1-2.6-1.7-5.4-1.7-8.4
						c0-2.9,0.6-5.7,1.7-8.3c1.1-2.6,2.7-4.9,4.6-6.8c1.9-1.9,4.2-3.5,6.9-4.6c2.6-1.1,5.4-1.7,8.3-1.7c2.9,0,5.7,0.5,8.3,1.7
						c2.6,1.1,4.9,2.7,6.9,4.6c1.9,2,3.5,4.3,4.6,6.8C719.2-818.5,719.7-815.7,719.7-812.8z"/>
				</g>
			</g>
			<g>
				<polygon class="st1" points="946.5,-819 946.5,-755.4 933.8,-755.4 933.8,-806.2 774.2,-806.2 774.2,-819 				"/>
			</g>
			<polygon class="st1" points="947,-659.8 947,-647.1 469,-647.1 469,-755.2 497.5,-755.2 497.5,-755.3 472.4,-755.3 472.4,-755.4 
				497.8,-755.4 497.8,-742.6 481.7,-742.6 481.7,-659.8 886.3,-659.8 886.3,-659.8 			"/>
			<g>
				<g>
					<path class="st1" d="M831.7-725.2l-37.2-0.3l0.1-11.4l37.2,0.3L831.7-725.2z M794.4-714.9l30.9,0.2l-0.1,11.4l-30.9-0.2
						L794.4-714.9z M794.2-691.1l37,0.3l-0.1,11.4l-37-0.3L794.2-691.1z"/>
				</g>
			</g>
		</g>
	</g>
	<g>
		<g>
			<polygon class="st2" points="564.1,-692.6 564.1,-679.3 555.3,-679.3 550.2,-679.3 532.4,-679.4 517.2,-679.5 517.8,-737.3 
				533,-737.2 532.5,-692.7 555.4,-692.6 			"/>
		</g>
		<g>
			<path class="st2" d="M638.4-719.4c-1.4-3.4-3.4-6.6-6-9.2c-2.6-2.7-5.6-4.8-8.9-6.3c-6.9-3.1-15.4-3.1-22.2-0.2
				c-3.4,1.4-6.4,3.5-9,6.1c-1.4,1.3-2.6,2.8-3.6,4.3c-1,1.5-1.9,3.2-2.6,4.8c-1.6,3.6-2.4,7.4-2.4,11.3c0,3.9,0.7,7.7,2.2,11.3
				c0.7,1.7,1.6,3.3,2.5,4.9c1,1.6,2.2,3.1,3.5,4.3c1.3,1.4,2.7,2.6,4.2,3.7c1.5,1,3.1,1.9,4.8,2.6c3.5,1.6,7.3,2.4,11.1,2.5
				c3.8,0,7.6-0.7,11.1-2.3c1.7-0.7,3.3-1.6,4.8-2.6c1.5-1,3-2.2,4.3-3.6c2.7-2.7,4.8-5.7,6.2-9.1c1.5-3.5,2.3-7.3,2.3-11.3
				C640.6-712.1,639.9-715.9,638.4-719.4z M612.3-724.6c2.2,0,4.3,0.4,6.2,1.3c1.9,0.9,3.6,2.1,5.1,3.6c1.4,1.5,2.6,3.2,3.4,5.2
				c0.8,2,1.2,4.1,1.2,6.3c0,2.2-0.5,4.3-1.3,6.3c-0.9,2-2,3.7-3.5,5.2c-1.5,1.5-3.2,2.6-5.1,3.5c-3.9,1.7-8.5,1.6-12.4-0.1
				c-1.9-0.9-3.7-2-5.1-3.5s-2.6-3.3-3.4-5.2c-0.8-2-1.2-4.1-1.2-6.4c0-2.2,0.5-4.3,1.3-6.3c0.9-2,2-3.7,3.5-5.2
				c1.5-1.4,3.2-2.6,5.1-3.5C608-724.2,610.1-724.6,612.3-724.6z"/>
		</g>
		<g>
			<path class="st2" d="M698.9-698.1l8.8,9.3l-1.3,1.4c-2.7,2.8-5.8,4.9-9.1,6.2c-3.2,1.4-6.6,2-10.2,2c-3.6,0-7.1-0.7-10.3-2.2
				c-3.3-1.4-6.3-3.5-9-6.3c-2.5-2.7-4.5-5.9-5.9-9.5c-0.6-1.7-1.1-3.5-1.4-5.3c-0.3-1.7-0.5-3.6-0.5-5.4c0-3.6,0.7-7.2,2.1-10.7
				c1.5-3.6,3.5-6.8,6.1-9.4c2.7-2.7,5.7-4.8,9.1-6.2c6.8-2.8,14-2.7,20.5,0.2c3.3,1.4,6.3,3.5,9,6.3l1.3,1.4l-9,9.2l-1.3-1.4
				c-1.4-1.5-3.1-2.7-4.8-3.4c-3.6-1.5-7.5-1.5-11.1-0.1c-1.8,0.7-3.4,1.8-4.8,3.3c-1.4,1.5-2.5,3.1-3.2,5c-0.8,1.8-1.2,3.8-1.2,5.9
				c0,2.1,0.3,4.1,1.1,5.9c0.7,1.8,1.8,3.5,3.2,5c1.4,1.4,2.9,2.5,4.7,3.3c3.5,1.6,7.8,1.6,11.3,0.1c1.8-0.8,3.3-1.9,4.7-3.3
				L698.9-698.1z"/>
		</g>
		<g>
			<polygon class="st2" points="774.7,-679.3 756.3,-679.4 742,-696.4 741.8,-679.5 727.5,-679.6 728,-736.6 742.3,-736.5 
				742.2,-721.6 755.2,-736.4 773.5,-736.3 749.5,-708.9 			"/>
		</g>
		<g>
			<path class="st2" d="M876.2-702.1c1.7-1,3.3-2.4,4.7-4.2c1.4-1.8,2.6-3.9,3.3-6.1c0.8-2.2,1.2-4.5,1.2-6.8c0-2.4-0.4-4.7-1.2-6.9
				c-0.8-2.2-1.9-4.1-3.4-5.8c-1.8-2-4-3.5-6.4-4.4l-22.9-0.3l-0.4,57l11.9,0.1l0.2-20.7l12,20.8l14.1,0.1L876.2-702.1z
				 M870.7-713.7c-0.4,0.3-0.9,0.5-1.5,0.5l-5.9-0.1l0.1-10.9l6,0.1c0.6,0,1.1,0.1,1.7,0.3c0.5,0.3,0.9,0.6,1.3,1s0.7,1,0.9,1.6
				c0.2,0.6,0.3,1.2,0.3,1.8c0,0.7-0.1,1.5-0.4,2.3c-0.3,0.8-0.6,1.5-1.2,2.1C871.8-714.7,871.4-714.3,870.7-713.7z"/>
		</g>
		<g>
			<path class="st2" d="M942.1-701.1c0.7,1.9,1,3.9,1,5.9c0,2-0.4,4-1.1,5.8c-0.8,1.9-1.8,3.5-3.3,5c-0.7,0.8-1.6,1.6-2.5,2.2
				c-0.9,0.6-1.9,1.2-2.9,1.6c-1.9,0.9-4,1.3-6.2,1.3h-0.2c-2.1,0-4.2-0.4-6-1.2c-2-0.8-3.8-2.1-5.4-3.7l-7.1-7.4l9.1-8.8l7.1,7.4
				c0.3,0.3,0.7,0.6,1.1,0.8c0.4,0.2,0.8,0.2,1.3,0.2c1.1,0,1.9-0.3,2.5-1.1c0.6-0.7,1-1.4,1-2.3c0-0.8-0.2-1.5-0.8-2.2l-13.3-11.9
				c-0.8-1-1.4-1.9-2-2.8c-0.5-0.9-0.9-1.9-1.3-2.8c-0.7-2.2-1-4.3-0.8-6.4c0.2-2.2,0.7-4.3,1.7-6.1c0.9-1.8,2.3-3.5,4-5.1l0.4-0.3
				c1.4-1.3,3.4-2.3,5.6-3c2.1-0.6,4.2-0.8,6.2-0.6c1.1,0.1,2.1,0.3,3.2,0.6c1,0.3,2,0.7,2.9,1.2c2,1.1,3.7,2.5,5,4.2l5.4,6.9
				l-10,7.8l-5.4-6.8c-0.6-0.8-1.4-1.2-2.4-1.3c-0.9-0.1-1.7,0.2-2.6,0.8c-0.9,0.8-1.3,1.5-1.3,2.5c-0.1,1,0.2,1.8,0.7,2.4
				l13.3,11.9C940.4-704.7,941.4-703,942.1-701.1z"/>
		</g>
	</g>
</g>
<g>
	<g>
		<g>
			<g>
				<rect x="-76.9" y="-78.2" class="st3" width="12.7" height="2.8"/>
			</g>
			<g>
				<rect x="-76.9" y="-85.8" class="st3" width="12.7" height="2.8"/>
			</g>
		</g>
		<g>
			<g>
				<rect x="-76.7" y="-44.9" class="st3" width="12.5" height="2.8"/>
			</g>
		</g>
		<g>
			<g>
				<rect x="-76.9" y="-65.9" class="st3" width="2.8" height="5.2"/>
			</g>
		</g>
		<g>
			<g>
				<polygon class="st3" points="-56.2,-95 -56.2,-75.4 -59,-75.4 -59,-92.1 -76.9,-92.1 -76.9,-95 				"/>
			</g>
		</g>
		<g>
			<g>
				<path class="st3" d="M-148-95V-31h-5.9v-47.6l-25.8,31l-0.7-0.7c-6-7.3-14.4-17.4-25.1-30.3V-31h-5.9V-95l1.5,1.9l30.1,36.3
					c5.5-6.6,15.9-19.1,30.2-36.3L-148-95z"/>
			</g>
		</g>
		<g>
			<g>
				<rect x="-140" y="-95" class="st3" width="5.7" height="63.9"/>
			</g>
		</g>
		<g>
			<g>
				<polygon class="st3" points="-56.2,-37.3 -56.2,-31.7 -87.4,-31.7 -87.4,-95 -81.8,-95 -81.8,-37.3 				"/>
			</g>
		</g>
	</g>
	<g>
		<g>
			<g>
				<rect x="-105" y="-78" class="st4" width="12.7" height="2.8"/>
			</g>
			<g>
				<rect x="-105" y="-85.6" class="st4" width="12.7" height="2.8"/>
			</g>
		</g>
		<g>
			<g>
				<rect x="-105" y="-44.7" class="st4" width="12.3" height="2.8"/>
			</g>
		</g>
		<g>
			<g>
				<rect x="-105" y="-65.7" class="st4" width="2.8" height="5.2"/>
			</g>
		</g>
		<g>
			<g>
				<polygon class="st4" points="-92.4,-94.8 -92.4,-92.1 -110.3,-92.1 -110.3,-31.2 -113.1,-31.2 -113.1,-43.2 -113.1,-91.9 
					-113.1,-94.8 				"/>
			</g>
		</g>
		<g>
			<path class="st4" d="M14.2-78.7C11.5-83.4,7.9-87.2,3.4-90c-2.4-1.5-5-2.7-7.9-3.5c-2.8-0.9-5.8-1.3-8.8-1.3
				c-5.7,0-11,1.4-15.7,4.1c-4.7,2.7-8.5,6.3-11.3,10.8c-1.5,2.4-2.7,5.1-3.5,7.9c-0.8,2.8-1.3,5.8-1.3,8.8c0,3.1,0.4,6.1,1.3,8.9
				c0.8,2.8,2,5.5,3.5,7.9c2.8,4.5,6.6,8.1,11.3,10.8c4.7,2.8,10,4.2,15.7,4.2c5.6,0,10.9-1.4,15.6-4.2c4.7-2.7,8.5-6.3,11.3-10.8
				c1.5-2.4,2.7-5.1,3.5-7.8c0.9-2.8,1.3-5.8,1.3-8.9C18.3-68.8,17-74,14.2-78.7z M-6.2-38.4c-2.3,0.7-4.7,1-7.2,1
				c-4.7,0-9-1.1-12.8-3.3c-3.8-2.2-6.9-5.2-9.2-8.8c-1.2-2-2.2-4.1-2.8-6.5c-0.7-2.3-1-4.7-1-7.2c0-4.6,1.1-8.8,3.4-12.6
				c2.2-3.9,5.2-7,8.9-9.2c2-1.2,4.1-2.2,6.5-2.8c2.3-0.7,4.7-1,7.2-1c4.6,0,8.9,1.1,12.7,3.3c3.9,2.2,7,5.2,9.3,8.8
				c1.2,1.9,2.2,4.1,2.8,6.4c0.7,2.3,1,4.7,1,7.1c0,4.7-1.1,9-3.3,12.8c-2.2,3.8-5.2,6.9-8.9,9.2C-1.7-40-3.9-39.1-6.2-38.4z"/>
		</g>
		<g>
			<path class="st4" d="M77.4-45.5l4.2,4.2L81-40.8c-2.9,2.9-6.3,5.1-10.2,6.8c-3.9,1.6-8.1,2.5-12.5,2.5c-3.1,0-6.1-0.4-8.9-1.3
				c-2.8-0.8-5.5-2-8-3.5c-4.6-2.8-8.2-6.6-10.9-11.3c-2.8-4.7-4.2-10-4.2-15.7c0-5.6,1.4-10.8,4.2-15.5c2.7-4.7,6.4-8.5,10.9-11.3
				c2.4-1.5,5.1-2.7,8-3.5c2.8-0.8,5.8-1.3,8.9-1.3c4.4,0,8.7,0.8,12.5,2.4c3.8,1.7,7.3,4,10.2,6.9l0.6,0.6l-4.2,4.1l-0.6-0.6
				c-2.4-2.3-5.2-4.2-8.3-5.6c-3.1-1.3-6.6-2-10.2-2c-4.7,0-9,1.1-12.8,3.3c-3.9,2.2-7.1,5.2-9.4,8.8c-1.2,1.9-2.2,4.1-2.8,6.4
				c-0.7,2.4-1.1,4.8-1.1,7.2c0,2.5,0.4,4.9,1.1,7.2c0.6,2.3,1.6,4.5,2.8,6.5c2.3,3.6,5.4,6.6,9.4,8.8c3.9,2.2,8.2,3.3,12.8,3.3
				c3.6,0,7-0.7,10.2-2.1c3.2-1.3,6-3.2,8.3-5.5L77.4-45.5z"/>
		</g>
		<g>
			<path class="st4" d="M110-71.6l26.3,40.2h-6.8l-0.2-0.3c-5.4-8.2-13.4-20.3-23.7-36.1c-2.5,2.1-6,5.1-10.5,8.9v27.4h-5.7v-63.3
				h5.7v28.1c6.4-5.5,17.9-15.3,32.8-27.9l0.2-0.1l0.3-0.1h8.7l-1.8,1.5C129.7-88.5,121.4-81.4,110-71.6z"/>
		</g>
		<g>
			<polygon class="st4" points="192.4,-37.3 192.4,-31.4 144.9,-31.4 144.9,-94.8 192.3,-94.8 192.3,-88.9 150.7,-88.9 150.7,-50.5 
				169.5,-50.5 169.5,-44.6 150.7,-44.6 150.7,-37.3 			"/>
		</g>
		<g>
			<path class="st4" d="M244.7-83.2c-2-3.4-4.6-6.1-7.8-8.2c-1.7-1.1-3.6-1.9-5.7-2.6c-2-0.6-4.2-0.8-6.3-0.8h-24.7v63.3h5.8v-17.4
				h12.7c3.3,7.5,5.9,13.1,7.6,17l0.1,0.4h6.5l-0.5-1.2c-3-6.8-5.4-12.2-7.1-16.2c4-0.1,7.6-1.1,10.9-3c3.4-2,6.1-4.6,8.1-7.9
				c1.1-1.8,1.9-3.7,2.5-5.7c0.6-2.1,0.9-4.2,0.9-6.4C247.7-75.9,246.7-79.7,244.7-83.2z M206-88.9h18.9c4.6,0,8.7,1.7,12,5
				c3.3,3.3,5,7.4,5,12.1c0,4.7-1.7,8.8-5,12.1c-3.3,3.3-7.3,5-12,5H206V-88.9z"/>
		</g>
		<g>
			<g>
				<path class="st4" d="M287.3-54.5c0,3.2-0.7,6.5-2,9.6c-1.7,3.8-4.1,6.8-7.1,9.1c-3.1,2.3-6.4,3.7-10,4.1c-1,0.1-1.8,0.2-2.6,0.2
					c-1.1,0-2.3-0.1-3.4-0.4c-1.9-0.3-3.9-0.9-5.8-1.9l-0.7-0.4l2.4-5.3l0.7,0.3c4,2,8.2,2.2,12.3,0.6c4.2-1.6,7.2-4.6,9.2-8.9
					c1.9-4.2,2-8.6,0.5-13c-1.5-4.4-4.4-7.7-8.4-9.7l-5.4-2.4c-2.8-1.4-4.7-3.6-5.7-6.6c-1.1-3-0.9-6,0.3-8.9
					c1.3-2.9,3.3-4.9,6.2-6.1c2.8-1.1,5.7-0.9,8.3,0.4l0.7,0.4l-2.3,5.4l-0.8-0.4c-1.3-0.7-2.7-0.7-4.1-0.2c-1.3,0.5-2.3,1.5-3,3
					c-0.6,1.4-0.7,2.8-0.2,4.3c0.5,1.5,1.4,2.5,2.8,3.2l5.4,2.3c2,1,3.7,2.2,5.1,3.5c1.5,1.5,2.8,3.1,3.9,4.8
					c2,3.2,3.2,6.8,3.5,10.8C287.2-55.7,287.3-55.1,287.3-54.5z"/>
			</g>
		</g>
	</g>
</g>
<g>
	<path class="st5" d="M-525.8,197.1c8.7,11.6,18.6,17.3,29.7,17.3c6.4,0,11.7-1.3,15.8-3.8s6.2-6.3,6.2-11.4
		c-0.3-4.5-2.8-7.9-7.4-10.1l-31.5-7.9c-9.7-3.1-17.5-8.2-23.4-15.2c-5.9-7-8.8-14.7-8.8-23.2c0-14,4.8-25.3,14.3-33.7
		c9.5-8.4,20.6-12.6,33.2-12.6c19.4,0,35.4,7.3,48,21.9l-22.2,18.3c-6.4-7.2-14.5-10.8-24.3-10.8c-6.5,0-11.6,1.4-15.1,4.2
		c-3.5,2.8-5.3,6.2-5.3,10.1c0,5.6,3.7,10,11.1,13.3l31.7,7.7c18.8,7.3,28.3,19.9,28.3,37.9c0,11.9-4.4,22.3-13.1,31.2
		c-8.7,8.9-21.2,13.4-37.6,13.4c-22.2,0-40-10.1-53.2-30.3L-525.8,197.1z"/>
	<path class="st5" d="M-332.8,96.8V128H-366v115.9h-29V128h-33.2V96.8H-332.8z"/>
	<path class="st5" d="M-225,225.7h-69.3l-7.7,17.8h-31.9l63.4-147.1h21.2l63.4,147.1h-31.5L-225,225.7z M-238.4,194.5l-21.2-49.2
		l-21.2,49.2H-238.4z"/>
	<path class="st5" d="M-87.2,202l22.6,41.9h-33.5l-16.8-31.4c-1.2,0.1-2.4,0.1-3.6,0.1h-20.8v31.2h-29.1V96.8h49.8
		c14.9,0,27.7,5.7,38.2,17s15.8,24.9,15.8,41c0,16.1-5.2,29.7-15.8,41C-82.5,198-84.8,200.1-87.2,202z"/>
	<path class="st6" d="M-461.3,276.9c-10.5-10.6-23.3-16-38.2-16h-49.9v138.6h29.1v-29.4h20.8c15,0,27.7-5.3,38.2-15.9
		c10.5-10.6,15.8-23.5,15.8-38.7C-445.5,300.4-450.7,287.5-461.3,276.9z M-491.1,295.1c0.8-3.7,2.6-6.8,6-9.1c5.2-3.5,11.8-2,15,3.4
		c1.8,3.1,2.3,6.7,1.4,10.9c-0.7,3.2-2.3,6.3-5.5,8.6c-5.1,3.7-11.9,2.4-15.2-3C-491.6,302.5-491.9,298.8-491.1,295.1z
		 M-518.6,289.9c1-4.2,2.9-7.6,6.7-10c4.2-2.5,9.8-1.6,13,2.1c2.3,2.6,3.1,5.6,3.2,8.7c0.1,3.9-1.1,7.5-3.8,10.6
		c-1.8,2.1-4.2,3.7-7.3,4c-4.2,0.4-7.3-1.2-9.6-4.4c-1.9-2.7-2.5-5.7-2.4-8.8C-518.8,291.3-518.7,290.4-518.6,289.9z M-536.9,313.4
		c-4-4.2-4.7-10.5-1.7-15c2.2-3.3,6-4.8,9.9-3.7c3.4,0.9,5.5,3.1,7,5.8c1.4,2.7,1.8,5.6,1.2,8.5c0,0.2-1,3-1.9,4.2
		C-525.9,317.8-532.7,317.8-536.9,313.4z M-477.8,343.2c-2.6,4.2-8,6.4-13.1,5.2c-1.2-0.3-2.4-0.8-3.5-1.4c-6-3.2-12.3-4.6-19-3.9
		c-9,0.9-15.3-6.9-13.5-14.7c1-3.2,3.1-6.9,6.1-10.1c3.7-3.9,8.1-6.9,13.8-8.1c9.1-1.9,17,0.6,23.2,7.2c4.9,5.1,7.1,11.2,7.6,17.7
		C-476,337.8-476.2,340.6-477.8,343.2z M-460.1,328.6c-6.3,3.5-13.5,0.2-14.5-6.5c-0.7-4.9,2.4-10.2,7.2-12.5
		c6.5-3,13.6,0.8,13.9,7.5c0,1-0.1,2-0.1,2.6C-454.6,323.7-456.6,326.6-460.1,328.6z"/>
	<polygon class="st6" points="-246.2,260.9 -246.2,290.3 -279.4,290.3 -279.4,399.5 -308.4,399.5 -308.4,290.3 -399.1,290.3 
		-399.1,315.5 -349.4,315.5 -349.4,344.9 -399.1,344.9 -399.1,370.1 -333.8,370.1 -333.8,399.5 -428.2,399.5 -428.2,260.9 	"/>
</g>
<g>
	<path class="st7" d="M829.9,123.9c0,7.8-1.2,14.9-3.7,21.3c-2.5,6.5-6,12-10.5,16.8c-2.9,3.1-6.3,5.6-10,7.8
		c-2,1.2-4.1,2.2-6.4,3.1c-4.1,1.6-8.5,2.7-13.2,3.3c-0.7,0.1-1.3,0.2-2,0.2c-1.9,0.2-3.8,0.3-5.8,0.3c-0.3,0-0.5,0-0.8,0
		c-0.3,0-0.7,0-1,0c-7-0.2-13.3-1.4-19.1-3.7c-0.7-0.3-1.5-0.6-2.2-0.9c-5.4-2.5-10-5.8-14-9.9c-4.5-4.7-8-10.3-10.5-16.8
		c-2.5-6.5-3.7-13.6-3.7-21.3c0-7.8,1.2-14.9,3.7-21.3c2.5-6.5,6-12,10.5-16.8c4.5-4.7,9.9-8.4,16.2-11c6.3-2.6,13.3-3.9,20.9-3.9
		c7.7,0,14.7,1.3,21,3.9c6.3,2.6,11.8,6.2,16.3,11c4.6,4.7,8.1,10.3,10.5,16.8C828.7,109,829.9,116.1,829.9,123.9z"/>
	<path class="st8" d="M585.8,308.7c-6.1,0-11.6-0.9-16.6-2.7c-5-1.8-9.4-4.5-13.2-7.9c-3.8-3.4-7-7.6-9.6-12.6l19.4-13.1
		c2.5,3.6,5.7,6.6,9.6,8.8c3.9,2.2,7.9,3.3,12,3.3c3.1,0,5.5-0.6,7-1.9c1.6-1.3,2.3-2.9,2.3-4.7c0-1.3-0.4-2.4-1.1-3.4
		c-0.7-1-2.1-1.9-4.2-2.9c-2.1-0.9-5.1-1.8-9.1-2.7c-8.3-2-15-4.5-19.9-7.5c-4.9-3-8.4-6.6-10.5-10.9c-2.1-4.3-3.1-9.2-3.1-14.7
		c0-6.1,1.5-11.6,4.6-16.6c3-5,7.4-8.9,13-11.9c5.6-3,12.4-4.4,20.1-4.4c8.7,0,16.2,1.8,22.3,5.4c6.2,3.6,10.9,8.2,14.2,13.8
		l-19.4,14.5c-2.2-3.1-5.1-5.2-8.8-6.6c-3.7-1.3-7.1-2-10.5-2c-2.9,0-5.3,0.6-7,1.7c-1.8,1.1-2.6,2.7-2.6,4.7s1,3.5,2.9,4.7
		c1.9,1.2,5.8,2.5,11.6,3.8c8,1.9,14.5,4.3,19.6,7.2c5.1,2.9,8.8,6.5,11.2,10.8c2.4,4.3,3.6,9.5,3.6,15.7c0,6.2-1.5,11.7-4.6,16.6
		s-7.4,8.7-13.1,11.4S593.6,308.7,585.8,308.7z"/>
	<path class="st8" d="M985.6,308.6c-6.1,0-11.6-0.9-16.6-2.7c-5-1.8-9.4-4.5-13.2-7.9c-3.8-3.4-7-7.6-9.6-12.6l19.4-13.1
		c2.5,3.6,5.7,6.6,9.6,8.8c3.9,2.2,7.9,3.3,12,3.3c3.1,0,5.5-0.6,7-1.9c1.6-1.3,2.3-2.9,2.3-4.7c0-1.3-0.4-2.4-1.1-3.4
		c-0.7-1-2.1-1.9-4.2-2.9c-2.1-0.9-5.1-1.8-9.1-2.7c-8.3-2-15-4.5-19.9-7.5c-4.9-3-8.4-6.6-10.5-10.9c-2.1-4.3-3.1-9.2-3.1-14.7
		c0-6.1,1.5-11.6,4.6-16.6c3-5,7.4-8.9,13-11.9c5.6-3,12.4-4.4,20.1-4.4c8.7,0,16.2,1.8,22.3,5.4c6.2,3.6,10.9,8.2,14.2,13.8
		l-19.4,14.5c-2.2-3.1-5.1-5.2-8.8-6.6c-3.7-1.3-7.1-2-10.5-2c-2.9,0-5.3,0.6-7,1.7c-1.8,1.1-2.6,2.7-2.6,4.7s1,3.5,2.9,4.7
		c1.9,1.2,5.8,2.5,11.6,3.8c8,1.9,14.5,4.3,19.6,7.2c5.1,2.9,8.8,6.5,11.2,10.8c2.4,4.3,3.6,9.5,3.6,15.7c0,6.2-1.5,11.7-4.6,16.6
		c-3,4.9-7.4,8.7-13.1,11.4C1000.3,307.3,993.5,308.6,985.6,308.6z"/>
	<path class="st8" d="M662.5,308.6h-25.8V202.7h25.8V308.6z"/>
	<path class="st8" d="M701.2,282.2v-79.4h-25.8v105.8h64.6v-26.4H701.2z"/>
	<path class="st8" d="M778.4,282.2v-79.4h-25.8v105.8h64.6v-26.4H778.4z"/>
	<path class="st7" d="M623.8,111.2c0,8.8-1.7,16.2-5,22.1c-3.3,6-8,10.5-14.1,13.5c-6,3.1-13,4.6-21,4.6h-10.5v25.3h-26.8V71h37.3
		c8,0,15,1.5,21,4.6c6,3.1,10.7,7.6,14.1,13.5C622.1,95,623.8,102.4,623.8,111.2z"/>
	<path class="st7" d="M713.6,176.7h-28.9l-12.3-26.5h-9v26.5H637V71h36.8c7.3,0,13.9,1.5,19.9,4.4c6,2.9,10.7,7.3,14.3,13.1
		c3.3,5.3,5,11.7,5.3,19.3c0,0.3,0,0.6-0.1,0.9c0,0.3,0,0.6,0.1,0.9c-0.3,7.6-2,14.1-5.3,19.3c-2.6,4.3-6,7.7-9.9,10.4
		c-0.3,0.2-0.5,0.3-0.8,0.5c-0.2,0.1-0.4,0.3-0.6,0.4l1.5,3.1l14.4,31.1L713.6,176.7z"/>
	<g>
		<polygon class="st7" points="933.3,308.3 907.1,308.3 905.8,304.8 882.7,241.2 882.7,241.2 869.8,205.8 868.9,203.1 894.6,203.1 
			895.6,205.8 895.6,205.8 930.6,300.8 931.1,302.3 		"/>
	</g>
	<g>
		<polygon class="st7" points="868.9,269 856.7,305.3 855.4,309 830.1,309 832.3,302.7 832.8,301.2 843.7,269 		"/>
	</g>
	<g>
		<path class="st8" d="M804.5,100c-7.2-4-14.5-8-21.7-12c-1-0.5-2.1-0.9-3.2-1c-3.9-0.3-6.6,2.6-6.6,6.9c0,6.7-0.1,13.4,0,20.1
			c0,1.6-0.5,2.2-1.9,2.5c-5.1,1.3-10.2,2.6-15.3,4.1c-4.4,1.3-6.9,4.8-6.9,9.4c0,4.4,0,8.8,0,13.1c0,3.2,1.2,5.5,4.1,6.9
			c0.7,0.4,1.4,0.8,2.1,1.1c7.5,4,14.8,8.6,22.6,12.2c0,0,6.9-3.5,7.9-4.1c5.9-3.4,11.7-6.9,17.6-10.3c3.4-2,5.1-5,5.1-9
			c0-11.2,0-22.4,0-33.6C808.3,103.5,807.1,101.4,804.5,100z M755.4,129.3c0.1-1.4,1.1-2.2,2.4-2.6c4.9-1.3,9.9-2.7,15-4
			c0.2,2,0,3.5-1.7,4.5c-5,2.9-10,5.9-15.1,8.9c-0.2,0.1-0.4,0.2-0.7,0.3C755.4,133.9,755.3,131.6,755.4,129.3z M774.5,147.9v6.7
			c-6.4-3.6-12.6-7-19.1-10.6c0.7-0.4,1.2-0.7,1.7-1c5.6-3.3,11.2-6.7,16.9-9.9c3.7-2.1,5.5-5.2,5.4-9.5c0-9.3,0-18.6,0-28v-2.1
			c0.6,0.3,1.1,0.5,1.5,0.7c6.5,3.6,13.1,7.3,19.6,10.9c0.9,0.5,1.2,1,1.2,2.1c0,7.3,0,14.7,0,22c0,1.1-0.2,1.6-1.3,1.9
			c-6.3,2.1-12.5,4.4-18.8,6.6C776.9,139.4,774.5,142.8,774.5,147.9z M798.7,144.1c-5.3,3.1-10.7,6.3-16,9.4c-0.5,0.3-1,0.5-1.7,0.9
			c0-2.7-0.1-5,0.1-7.3c0.1-1,0.8-2.4,1.6-2.7c6.2-2.4,12.6-4.6,18.9-6.8C802.2,141.4,801.9,142.2,798.7,144.1z"/>
		<path class="st9" d="M801.8,107.2c0,7.3,0,14.7,0,22c0,1.1-0.2,1.6-1.3,1.9c-6.3,2.1-12.5,4.4-18.8,6.6c-4.8,1.7-7.2,5-7.2,10.1
			v6.7c-6.4-3.6-12.6-7-19.1-10.6c0.7-0.4,1.2-0.7,1.7-1c5.6-3.3,11.2-6.7,16.9-9.9c3.7-2.1,5.5-5.2,5.4-9.5c0-9.3,0-18.6,0-28v-2.1
			c0.6,0.3,1.1,0.5,1.5,0.7c6.5,3.6,13.1,7.3,19.6,10.9C801.4,105.6,801.8,106.1,801.8,107.2z"/>
		<path class="st9" d="M798.7,144.1c-5.3,3.1-10.7,6.3-16,9.4c-0.5,0.3-1,0.5-1.7,0.9c0-2.7-0.1-5,0.1-7.3c0.1-1,0.8-2.4,1.6-2.7
			c6.2-2.4,12.6-4.6,18.9-6.8C802.2,141.4,801.9,142.2,798.7,144.1z"/>
		<path class="st9" d="M771.2,127.2c-5,2.9-10,5.9-15.1,8.9c-0.2,0.1-0.4,0.2-0.7,0.3c0-2.5-0.1-4.8,0-7.1c0.1-1.4,1.1-2.2,2.4-2.6
			c4.9-1.3,9.9-2.7,15-4C773.1,124.7,772.9,126.2,771.2,127.2z"/>
	</g>
</g>
<g>
	<g>
		<polygon class="st10" points="913.5,-158.5 913.5,-139.6 885.7,-139.6 885.7,-61.1 866.8,-61.1 866.8,-139.6 839.1,-139.6 
			839.1,-158.5 		"/>
		<path class="st10" d="M751.3-110.1c0,27.1-22.1,49.1-49.1,49.1c-27.1,0-49.1-22.1-49.1-49.1c0-27.1,22.1-49.1,49.1-49.1
			C729.3-159.2,751.3-137.2,751.3-110.1z"/>
		<path class="st10" d="M436.5-61v-98.3h18.9V-61H436.5z"/>
		<polygon class="st10" points="565,-159.2 565,-61 546.1,-61 546.1,-121.9 533.1,-108.8 520.8,-96.5 519.7,-95.4 519.7,-95.4 
			506.4,-108.8 493.2,-121.9 493.2,-61 474.3,-61 474.3,-159.2 482.6,-159.2 493.2,-148.6 519.7,-122.1 519.6,-122 519.7,-121.9 
			519.8,-122.1 519.7,-122.1 556.8,-159.2 		"/>
		<path class="st10" d="M829.7-61L829.7-61l-20.8,0.1l-2.7-5.8l-4.1-8.8l0-0.1l-3.2-6.9l-8-17.2v-20.1h7.4c1.3,0,2.6-0.3,3.7-0.8
			c0,0,0.1,0,0.1-0.1c0,0,0,0,0,0c1.7-0.8,3.1-2.1,4.1-3.7c1-1.5,1.5-3.3,1.5-5.3c0-1.9-0.5-3.8-1.5-5.3c-1-1.6-2.4-2.9-4.1-3.7
			c0,0,0,0,0,0c-1.1-0.5-2.3-0.8-3.6-0.9h-18.6V-61h-19.1l0.2-78.5v-18.9h43.4c0.6,0.1,1.2,0.3,1.8,0.5c8.8,2.7,15.8,9.6,18.9,18.4
			c1.1,3.1,1.7,6.4,1.7,9.9c0,11.8-6.7,22-16.6,26.7L829.7-61z"/>
		<path class="st10" d="M642-139.6c-3.3-9.4-11.2-16.7-20.9-18.9h-37.2V-61h18.9v-40h18.3c9.7-2.2,17.6-9.4,20.9-18.9
			c1.1-3.1,1.6-6.4,1.6-9.8C643.7-133.1,643.1-136.5,642-139.6z M614.8-119.8h-12v-19.8h12c5.2,0,9.6,4.5,9.6,10
			C624.4-124.2,620-119.8,614.8-119.8z"/>
	</g>
	<g>
		<g>
			<path class="st11" d="M537.2-159.1c-6.3,12.3-20.6,22-34.8,25.6c-13.1,3.1-36,1-37.8-14.7c-0.9-7.5,5-14,11.3-18.3
				c0.9-0.5,1.6-0.9,2.4-1.4c-12.7,0-25.4-0.1-38.1-0.1c-4.7,0-4.7-6.6,0-6.6c21.3,0.1,42.6,0.4,63.7-0.1c4.7-0.1,4.7,6.5,0,6.6
				c-0.4,0-1,0-1.4,0c-0.1,0-0.3,0-0.4,0c-4.7,0.4-9.3,1.3-13.6,2.9c-6.7,2.5-17.6,8.6-16.7,16.5c0.9,6.9,10.7,10,17.1,10.2
				c15.3,0.5,31.8-8,39.8-20c5.9-8.4,6.1-19.5-7.6-20.6c-12-1-24,1.7-36,1.9c-9.1,0.1-22.1-1.9-21-12.8
				c1.6-14.1,17.1-24.6,29.8-30.7c10.1-5.1,35.1-14.3,44.7-2.6c7.4,9-7.4,20.2-13.6,25.8c-3.3,3-8.4-1.6-5.1-4.7
				c2.9-2.5,5.7-4.9,8.3-7.7c14.4-15.7-11.4-12.7-21-9.3c-12.1,4.3-32.3,14.4-35.6,27.8c-2.4,10,13.6,7.9,20.4,7.3
				c11.1-0.9,24.1-3.8,35.1-0.5C539.6-181.3,542.2-169,537.2-159.1z"/>
			<path class="st11" d="M608.3-174.2c-1.8,5.4-1.5,11-2.9,16.3c-0.9,3.7-8.4,2.2-7.5-1.5c0.4-1.9,0.6-3.6,0.9-5.6
				c-4,2.5-14.8,9.2-21.5,7.2c-4,5.5-8.9,10.9-15.2,14.8c-5.7,3.6-14.3,5.6-19.6,0.5c-4.9-4.4-3.7-11.7-2.3-17
				c3.1-12,7.1-23.9,11.1-35.7h-14.7c-5.1-0.1-5.1-6,0-6h16.7c1.4-3.7,2.6-7.5,3.8-11.2c1.2-3.7,8.7-2.2,7.5,1.5
				c-1.1,3.3-2.1,6.5-3.2,9.8c7.5,0.1,23.9,0.2,31.4,0.2c4.9,0.1,4.9,6.1,0,6c-8.1,0-25.3-0.1-33.3-0.2c-4.4,12.5-10,26.3-12.4,39.8
				c-0.6,4.9-0.6,13.4,9.2,8.3c7.2-4.2,12.5-11,16.6-17.3c0.1-1.3,0.6-2.6,1.4-3.9c1.7-3.2,4.6-6.3,6.8-8.2
				c6-5.2,14.9-10.9,24.7-9.4c4.9,0.8,2.9,6.7-2.2,5.9c-6.4-1.1-13.3,4.4-17,7.8c-3.7,3.4-5.1,5.6-5.1,6.8v0c0,0.1,0,0.2,0,0.2
				c0,0,0,0,0,0c0.3,1.4,3.3,0.9,7.1-1.3c4.4-2.5,10.4-6.1,12.7-10.2C603.1-179.6,609.5-177.4,608.3-174.2z"/>
			<path class="st11" d="M697.5-164.7c-12.6,0.5-25.1,1.1-37.7,0.9c-6.7,0-15.1,0.2-20.8-2.9c-5.4-2.9-5.9-8.1-3.9-12.8
				c0.3-0.9,2.6-4.3,1-3.6c-10,3.6-21,21.9-22.7,31.1c-0.7,3.7-7.7,2.2-7-1.5c2.1-11.4,4.9-22.5,8.3-33.6c1.1-3.7,8.1-2.1,7,1.6
				c-0.7,2.5-1.6,5-2.3,7.6c4.3-4.4,12-13.2,20.9-11.4c3.3,0.7,5.7,2.7,4.7,5.5c-1,3.2-5.4,7.4-3.4,10.8c1.3,2.2,5.6,2.6,8.1,2.8
				c15.4,1.4,31.4,0.1,47.8-0.6C702.2-170.9,702.2-165,697.5-164.7z"/>
		</g>
	</g>
</g>
<path class="st0" d="M-653.1-405.7c-6.5-11.2-16.5-19.2-27.9-23.4c-0.1,0-0.1,0.1-0.2,0.2c-7.9-2.9-16.5-3.9-24.9-2.9
	c-0.1,0-0.1,0-0.2,0c-6,0.7-11.8,2.4-17.4,5.3c-0.7,0.3-1.4,0.7-2.1,1.1c-8.5,4.5-17.4,9.3-24.9,15.3c-17.5,13.8-24.9,35-18.2,56.4
	c3,9.4,7.9,17.7,12.8,26.2c3.8,6.4,7.5,12.9,11.3,19.3c2.4,4.1,6,8,7,12.7c1.3,5.9-4.6,12.1-10.7,11c-3.4-0.6-5.6-3.6-7.2-6.4
	c-13.9-24.1-27.8-48.2-41.7-72.3c-12-20.7-23.9-41.5-35.9-62.2c-5.3-9.1-10.5-18.3-15.8-27.4c-2.5-4.4-2.9-9.1,1.8-12.1
	c6.4-4,11.3-1.2,14.7,4.7c13.1,22.7,26.1,45.3,39.2,68c0.9,1.6,1.7,3.4,2.9,4.8c-0.4-0.5,1.6-5.6,1.8-6.2c0.8-2.3,1.8-4.6,3-6.8
	c2.3-4.4,5.3-8.5,8.6-12.2c6.8-7.5,15.3-13.6,24.4-18c0.2-0.1-2.5-5.2-2.9-5.8l-36.2-62.7c-11-19.1-32.2-28.8-52.8-26.3
	c-0.1,0-0.1,0-0.2,0c-6.9,0.8-13.7,3-20.1,6.7l-18.2,10.5c-7.8,4.5-14,10.7-18.5,17.9c-0.1,0.2-0.2,0.4-0.3,0.5
	c-5.2,8.5-7.9,18.4-7.9,28.4c0.3,5.8,1.7,11.8,4.1,18.2c4.8,12.8,12.9,25,19.7,36.9c11.6,20.4,23.5,40.5,35.2,60.8
	c5.9,10.3,11.9,20.6,17.8,30.9c3,5.1,5.9,10.2,8.8,15.4l27.3,47.3c6.4,11,16.1,18.9,27.2,23.1c0.9,0.4,1.9,0.7,2.9,1
	c0,0,0.1,0,0.1,0c0.5,0.2,1.1,0.3,1.6,0.5c13.4,3.8,28.2,2.4,41.2-5.1l18.1-10.5c1-0.6,2-1.2,3-1.9c3.7-2.5,7-5.4,9.9-8.6
	c14.6-16.1,18.3-40.1,8-60.2c-0.1-0.1-0.1-0.3-0.2-0.4c-8.4-14.5-16.4-29.4-25.2-43.6c-1.1-1.9-2.2-3.8-2.6-6
	c-1.2-7.3,9.5-12.5,14.8-7.7c1.3,1.2,2.3,2.8,3.2,4.4c1.2,2.1,15.5,26.7,15.5,26.7l57.2,96.4c0,0,21.6,37.8,21.6,37.8
	c1.1,2,2.1,4.2,2,6.5c-0.1,2-1.1,3.7-2.6,5c-2,1.8-4.6,3.6-7.4,4c-2.1,0.3-4.1-0.6-5.6-1.9c-1.1-1-2-2.2-2.8-3.5
	c-8-13.9-16.1-27.8-24.1-41.7c-5.6-9.8-11.3-19.5-16.9-29.3c0.5,0.9-1.7,5.3-2.1,6.3c-0.8,2-1.8,3.8-2.9,5.7
	c-5.5,9.2-13.7,16.4-22.5,22.3c-0.6,0.4-1.3,0.8-1.9,1.2c-1,0.6-2.1,1.2-3.1,1.9c-0.9,0.6-6.9,3.9-6.9,3.9l38.8,67.2
	c14.7,25.5,47.6,34.3,73.1,19.6l18.2-10.5c10.2-5.9,18.1-15,22.6-25.9c4.4-10.8,5.3-22.8,2.3-34.1c-1-3.6-2.3-7.2-4-10.5
	c0,0-35-60.9-35.2-61.2L-653.1-405.7z M-770.9-372.8c0.1-0.8,0.2-1.5,0.2-2.2c0-0.2,0-0.3,0.1-0.4
	C-770.7-374.6-770.8-373.7-770.9-372.8z M-768.1-386C-768.1-386-768.1-386-768.1-386L-768.1-386c0.3-0.8,0.5-1.5,0.8-2.2
	C-767.6-387.4-767.8-386.7-768.1-386z"/>
</svg>
